<svg width="16" height="16" viewBox="0 0 16 16" fill="none" xmlns="http://www.w3.org/2000/svg">
<path fill-rule="evenodd" clip-rule="evenodd" d="M-4.37114e-08 8C-6.78525e-08 7.44772 0.447715 7 1 7L15 7C15.5523 7 16 7.44771 16 8C16 8.55228 15.5523 9 15 9L1 9C0.447715 9 -1.95703e-08 8.55228 -4.37114e-08 8Z" fill="#447DF0"/>
<path fill-rule="evenodd" clip-rule="evenodd" d="M0.292893 8.70711C-0.0976314 8.31658 -0.0976315 7.68342 0.292893 7.29289L7.29289 0.292893C7.68342 -0.0976318 8.31658 -0.0976318 8.70711 0.292893C9.09763 0.683417 9.09763 1.31658 8.70711 1.70711L2.41421 8L8.70711 14.2929C9.09763 14.6834 9.09763 15.3166 8.70711 15.7071C8.31658 16.0976 7.68342 16.0976 7.29289 15.7071L0.292893 8.70711Z" fill="#447DF0"/>
</svg>
