<svg width="16" height="16" viewBox="0 0 16 16" fill="none" xmlns="http://www.w3.org/2000/svg">
<path d="M8 16C12.4183 16 16 12.4183 16 8C16 3.58172 12.4183 0 8 0C3.58172 0 0 3.58172 0 8C0 12.4183 3.58172 16 8 16Z" fill="#C4C4C4"/>
<path fill-rule="evenodd" clip-rule="evenodd" d="M11.1067 4.89289C11.4972 5.28342 11.4972 5.91658 11.1067 6.30711L6.30672 11.1071C5.91619 11.4976 5.28303 11.4976 4.8925 11.1071C4.50198 10.7166 4.50198 10.0834 4.8925 9.69289L9.6925 4.89289C10.083 4.50237 10.7162 4.50237 11.1067 4.89289Z" fill="white"/>
<path fill-rule="evenodd" clip-rule="evenodd" d="M4.8925 4.89289C5.28303 4.50237 5.91619 4.50237 6.30672 4.89289L11.1067 9.69289C11.4972 10.0834 11.4972 10.7166 11.1067 11.1071C10.7162 11.4976 10.083 11.4976 9.6925 11.1071L4.8925 6.30711C4.50198 5.91658 4.50198 5.28342 4.8925 4.89289Z" fill="white"/>
</svg>
