<svg width="13" height="8" viewBox="0 0 13 8" fill="none" xmlns="http://www.w3.org/2000/svg">
<path fill-rule="evenodd" clip-rule="evenodd" d="M6.97859 7.02565C6.58807 7.41618 5.9549 7.41618 5.56438 7.02565L0.292949 1.75423C-0.0975752 1.3637 -0.0975752 0.730536 0.292949 0.340012C0.683473 -0.0505122 1.31664 -0.0505122 1.70716 0.340012L6.97859 5.61144C7.36912 6.00197 7.36912 6.63513 6.97859 7.02565Z" fill="black"/>
<path fill-rule="evenodd" clip-rule="evenodd" d="M12.2501 0.340012C12.6406 0.730537 12.6406 1.3637 12.2501 1.75423L6.97865 7.02565C6.58812 7.41618 5.95496 7.41618 5.56443 7.02565C5.17391 6.63513 5.17391 6.00197 5.56443 5.61144L10.8359 0.340012C11.2264 -0.050512 11.8596 -0.050512 12.2501 0.340012Z" fill="black"/>
</svg>
