<svg width="18" height="16" viewBox="0 0 18 16" fill="none" xmlns="http://www.w3.org/2000/svg">
<path fill-rule="evenodd" clip-rule="evenodd" d="M0.721815 0.678521C0.845979 0.416811 1.10975 0.25 1.39942 0.25H16.4216C16.7113 0.25 16.9751 0.416811 17.0993 0.678521C17.2234 0.94023 17.1858 1.25004 17.0025 1.4744L11.1628 8.62512V15C11.1628 15.2618 11.0262 15.5047 10.8025 15.6408C10.5789 15.7768 10.3004 15.7864 10.0679 15.666L7.06348 14.1105C6.81458 13.9816 6.65831 13.7247 6.65831 13.4444V8.62512L0.818525 1.4744C0.635298 1.25004 0.597652 0.94023 0.721815 0.678521ZM2.98025 1.75L7.98921 7.88338C8.09857 8.01729 8.15831 8.18488 8.15831 8.35778V12.9882L9.66276 13.7671V8.35778C9.66276 8.18488 9.72249 8.01729 9.83186 7.88338L14.8408 1.75H2.98025Z" fill="#455575"/>
</svg>
