<svg width="11" height="11" viewBox="0 0 11 11" fill="none" xmlns="http://www.w3.org/2000/svg">
<path fill-rule="evenodd" clip-rule="evenodd" d="M10.1414 0.292893C10.5319 0.683417 10.5319 1.31658 10.1414 1.70711L1.70711 10.1414C1.31658 10.5319 0.683417 10.5319 0.292893 10.1414C-0.0976311 9.75087 -0.0976311 9.1177 0.292893 8.72718L8.72718 0.292893C9.1177 -0.0976311 9.75087 -0.0976311 10.1414 0.292893Z" fill="black"/>
<path fill-rule="evenodd" clip-rule="evenodd" d="M0.292893 0.292893C0.683417 -0.0976311 1.31658 -0.0976311 1.70711 0.292893L10.1414 8.72718C10.5319 9.1177 10.5319 9.75087 10.1414 10.1414C9.75087 10.5319 9.1177 10.5319 8.72718 10.1414L0.292893 1.70711C-0.0976311 1.31658 -0.0976311 0.683417 0.292893 0.292893Z" fill="black"/>
</svg>
