<svg width="22" height="22" viewBox="0 0 22 22" fill="none" xmlns="http://www.w3.org/2000/svg">
<path fill-rule="evenodd" clip-rule="evenodd" d="M11 2C6.02944 2 2 6.02944 2 11C2 15.9706 6.02944 20 11 20C15.9706 20 20 15.9706 20 11C20 6.02944 15.9706 2 11 2ZM0 11C0 4.92487 4.92487 0 11 0C17.0751 0 22 4.92487 22 11C22 17.0751 17.0751 22 11 22C4.92487 22 0 17.0751 0 11Z" fill="black"/>
<path fill-rule="evenodd" clip-rule="evenodd" d="M11.2582 7.0244C10.7927 6.94455 10.314 7.03203 9.90675 7.27135C9.49955 7.51066 9.19019 7.88637 9.03345 8.33193C8.85018 8.85292 8.27926 9.12669 7.75827 8.94342C7.23728 8.76015 6.96351 8.18923 7.14678 7.66824C7.46025 6.77713 8.07898 6.02572 8.89339 5.54708C9.70779 5.06845 10.6653 4.89349 11.5964 5.05319C12.5274 5.21289 13.3719 5.69694 13.9802 6.41961C14.5884 7.14213 14.9214 8.05656 14.9201 9.001C14.9197 10.5314 13.7851 11.542 12.9748 12.0821C12.5392 12.3726 12.1107 12.5861 11.795 12.7264C11.6358 12.7972 11.5016 12.8509 11.405 12.8877C11.3566 12.9061 11.3174 12.9204 11.2888 12.9306L11.2541 12.9427L11.243 12.9465L11.2391 12.9478L11.2376 12.9483C11.2373 12.9484 11.2363 12.9488 10.9201 12.0001L11.2363 12.9488C10.7124 13.1234 10.1461 12.8403 9.97143 12.3163C9.7969 11.7927 10.0796 11.2268 10.6028 11.0517L10.6016 11.0522C10.6017 11.0521 10.6018 11.0521 10.6028 11.0517L10.6188 11.0461C10.6342 11.0407 10.6594 11.0315 10.693 11.0187C10.7605 10.993 10.8607 10.953 10.9827 10.8988C11.2296 10.7891 11.551 10.6276 11.8654 10.418C12.555 9.9583 12.9201 9.46922 12.9201 9.00008L12.9201 8.99859C12.9208 8.52628 12.7543 8.06895 12.4502 7.70761C12.146 7.34628 11.7238 7.10425 11.2582 7.0244Z" fill="black"/>
<path fill-rule="evenodd" clip-rule="evenodd" d="M10 16C10 15.4477 10.4477 15 11 15H11.01C11.5623 15 12.01 15.4477 12.01 16C12.01 16.5523 11.5623 17 11.01 17H11C10.4477 17 10 16.5523 10 16Z" fill="black"/>
</svg>
