<svg width="17" height="17" viewBox="0 0 17 17" fill="none" xmlns="http://www.w3.org/2000/svg">
<path d="M7.58364 17C7.37299 17 7.19393 16.9257 7.04647 16.7772C6.89901 16.6286 6.82528 16.4482 6.82528 16.236V10.0281H0.758364C0.547707 10.0281 0.368649 9.95381 0.221189 9.80524C0.0737297 9.65668 0 9.46567 0 9.23221V7.57678C0 7.34332 0.0737297 7.16292 0.221189 7.03558C0.368649 6.88702 0.547707 6.81273 0.758364 6.81273H6.82528V0.764045C6.82528 0.530587 6.89901 0.350188 7.04647 0.222848C7.19393 0.0742827 7.37299 0 7.58364 0H9.41636C9.64808 0 9.82714 0.0742827 9.95353 0.222848C10.101 0.350188 10.1747 0.530587 10.1747 0.764045V6.81273H16.2416C16.4734 6.81273 16.6524 6.88702 16.7788 7.03558C16.9263 7.16292 17 7.34332 17 7.57678V9.23221C17 9.46567 16.9263 9.65668 16.7788 9.80524C16.6314 9.95381 16.4523 10.0281 16.2416 10.0281H10.1747V16.236C10.1747 16.4482 10.101 16.6286 9.95353 16.7772C9.82714 16.9257 9.64808 17 9.41636 17H7.58364Z" fill="#005EFF"/>
<path d="M16 8.5C16 12.6421 12.6421 16 8.5 16C4.35786 16 1 12.6421 1 8.5C1 4.35786 4.35786 1 8.5 1C12.6421 1 16 4.35786 16 8.5Z" fill="white"/>
<path fill-rule="evenodd" clip-rule="evenodd" d="M8.5 14C11.5376 14 14 11.5376 14 8.5C14 5.46243 11.5376 3 8.5 3C5.46243 3 3 5.46243 3 8.5C3 11.5376 5.46243 14 8.5 14ZM8.5 16C12.6421 16 16 12.6421 16 8.5C16 4.35786 12.6421 1 8.5 1C4.35786 1 1 4.35786 1 8.5C1 12.6421 4.35786 16 8.5 16Z" fill="#005EFF"/>
<path d="M12 8.5C12 10.433 10.433 12 8.5 12C6.567 12 5 10.433 5 8.5C5 6.567 6.567 5 8.5 5C10.433 5 12 6.567 12 8.5Z" fill="#005EFF"/>
</svg>
