<svg width="22" height="18" viewBox="0 0 22 18" fill="none" xmlns="http://www.w3.org/2000/svg">
<path fill-rule="evenodd" clip-rule="evenodd" d="M3 2C2.45228 2 2 2.45228 2 3V15C2 15.5477 2.45228 16 3 16H19C19.5477 16 20 15.5477 20 15V3C20 2.45228 19.5477 2 19 2H3ZM0 3C0 1.34772 1.34772 0 3 0H19C20.6523 0 22 1.34772 22 3V15C22 16.6523 20.6523 18 19 18H3C1.34772 18 0 16.6523 0 15V3Z" fill="black"/>
<path fill-rule="evenodd" clip-rule="evenodd" d="M0.180854 2.42654C0.497568 1.97409 1.1211 1.86405 1.57355 2.18077L11.0001 8.77934L20.4266 2.18077C20.8791 1.86405 21.5026 1.97409 21.8193 2.42654C22.136 2.87899 22.026 3.50252 21.5735 3.81923L11.5735 10.8192C11.2292 11.0603 10.7709 11.0603 10.4266 10.8192L0.426623 3.81923C-0.0258258 3.50252 -0.135861 2.87899 0.180854 2.42654Z" fill="black"/>
</svg>
