<svg width="41" height="8" viewBox="0 0 41 8" fill="none" xmlns="http://www.w3.org/2000/svg">
<path d="M4.5125 0.4C4.5045 0.4 4.5045 0.4 4.5045 0.4C4.3605 0.4 4.2325 0.464 4.1445 0.584L2.5525 2.792L0.9605 0.584C0.8805 0.464 0.7365 0.4 0.6085 0.4C0.5925 0.4 0.5925 0.4 0.5845 0.4C0.3445 0.4 0.1445 0.6 0.1445 0.84V5.56C0.1445 5.8 0.3445 6 0.5845 6C0.8325 6 1.0325 5.8 1.0325 5.56V2.192L2.1765 3.792C2.2645 3.912 2.4005 3.976 2.5445 3.976H2.5525H2.5605C2.7045 3.976 2.8325 3.912 2.9205 3.792L4.0725 2.192V5.56C4.0725 5.8 4.2645 6 4.5125 6C4.7525 6 4.9605 5.8 4.9605 5.56V0.84C4.9605 0.6 4.7525 0.408 4.5125 0.4ZM8.4785 6C9.0465 6 9.5185 5.832 9.9105 5.472C10.0945 5.304 10.0145 5.064 9.9105 4.952C9.8065 4.824 9.4785 4.8 9.3105 4.976C9.1105 5.128 8.7665 5.2 8.4785 5.176C8.1985 5.152 7.8785 5.008 7.7105 4.816C7.5665 4.68 7.4785 4.472 7.4385 4.288H9.9825C10.2065 4.288 10.3745 4.16 10.3985 3.968C10.4065 3.952 10.4065 3.912 10.4065 3.896C10.4065 3.88 10.4065 3.864 10.4065 3.856C10.3425 2.776 9.5185 2 8.4785 2C7.3825 2 6.5345 2.912 6.5265 4C6.5345 5.088 7.3825 5.992 8.4785 6ZM8.4785 2.76C9.1745 2.816 9.5825 3.288 9.6625 3.608H7.3985C7.4625 3.28 7.7985 2.792 8.4785 2.76ZM11.5455 5.448C11.8655 5.704 12.3455 5.992 12.9695 6C13.3615 6 13.7215 5.88 14.0095 5.68C14.2975 5.472 14.5135 5.144 14.5135 4.752C14.5135 4.568 14.4575 4.384 14.3615 4.224C14.2255 4 14.0095 3.848 13.7935 3.752C13.5615 3.64 13.3135 3.568 13.0495 3.52H13.0415L13.0335 3.512C12.7615 3.464 12.5535 3.392 12.4495 3.32C12.3935 3.288 12.3695 3.256 12.3615 3.24C12.3455 3.216 12.3455 3.208 12.3455 3.176C12.3455 3.136 12.3695 3.064 12.4735 2.992C12.5775 2.912 12.7535 2.848 12.9535 2.848C13.2095 2.848 13.4335 2.976 13.6895 3.144C13.8895 3.28 14.1535 3.224 14.2815 3.032C14.4015 2.832 14.3455 2.568 14.1535 2.44C13.8975 2.264 13.5055 2 12.9535 2C12.5855 2 12.2495 2.104 11.9695 2.296C11.7055 2.496 11.4975 2.808 11.4975 3.176C11.4975 3.36 11.5455 3.536 11.6335 3.68C11.7775 3.896 11.9695 4.04 12.1855 4.144C12.3935 4.24 12.6335 4.304 12.8815 4.352H12.8895C13.1775 4.408 13.4175 4.496 13.5295 4.576C13.5935 4.616 13.6255 4.648 13.6335 4.672C13.6495 4.696 13.6575 4.712 13.6575 4.752C13.6575 4.816 13.6255 4.896 13.5135 4.992C13.3855 5.072 13.1855 5.144 12.9695 5.144C12.6575 5.152 12.2975 4.968 12.0895 4.792C11.9135 4.64 11.6335 4.664 11.4895 4.856C11.3455 5.032 11.3695 5.304 11.5455 5.448ZM15.4049 5.448C15.7249 5.704 16.2049 5.992 16.8289 6C17.2209 6 17.5809 5.88 17.8689 5.68C18.1569 5.472 18.3729 5.144 18.3729 4.752C18.3729 4.568 18.3169 4.384 18.2209 4.224C18.0849 4 17.8689 3.848 17.6529 3.752C17.4209 3.64 17.1729 3.568 16.9089 3.52H16.9009L16.8929 3.512C16.6209 3.464 16.4129 3.392 16.3089 3.32C16.2529 3.288 16.2289 3.256 16.2209 3.24C16.2049 3.216 16.2049 3.208 16.2049 3.176C16.2049 3.136 16.2289 3.064 16.3329 2.992C16.4369 2.912 16.6129 2.848 16.8129 2.848C17.0689 2.848 17.2929 2.976 17.5489 3.144C17.7489 3.28 18.0129 3.224 18.1409 3.032C18.2609 2.832 18.2049 2.568 18.0129 2.44C17.7569 2.264 17.3649 2 16.8129 2C16.4449 2 16.1089 2.104 15.8289 2.296C15.5649 2.496 15.3569 2.808 15.3569 3.176C15.3569 3.36 15.4049 3.536 15.4929 3.68C15.6369 3.896 15.8289 4.04 16.0449 4.144C16.2529 4.24 16.4929 4.304 16.7409 4.352H16.7489C17.0369 4.408 17.2769 4.496 17.3889 4.576C17.4529 4.616 17.4849 4.648 17.4929 4.672C17.5089 4.696 17.5169 4.712 17.5169 4.752C17.5169 4.816 17.4849 4.896 17.3729 4.992C17.2449 5.072 17.0449 5.144 16.8289 5.144C16.5169 5.152 16.1569 4.968 15.9489 4.792C15.7729 4.64 15.4929 4.664 15.3489 4.856C15.2049 5.032 15.2289 5.304 15.4049 5.448ZM22.8624 2.432C22.8624 2.192 22.6704 2 22.4384 2C22.2304 2 22.0704 2.152 22.0224 2.352C21.7184 2.136 21.3584 2 20.9584 2C20.4144 2 19.9424 2.232 19.5984 2.6C19.2544 2.96 19.0544 3.456 19.0544 4.008C19.0544 4.552 19.2544 5.048 19.5984 5.416C19.9424 5.776 20.4144 6 20.9584 6C21.3584 6 21.7184 5.872 22.0224 5.656C22.0704 5.848 22.2304 6 22.4384 6C22.6704 6 22.8624 5.808 22.8624 5.576V4.008V2.432ZM21.7024 4.832C21.5104 5.032 21.2384 5.144 20.9584 5.144C20.6704 5.144 20.3984 5.032 20.2144 4.832C20.0224 4.624 19.9104 4.336 19.9104 4.008C19.9104 3.672 20.0224 3.384 20.2144 3.184C20.3984 2.968 20.6704 2.856 20.9584 2.856C21.2384 2.856 21.5104 2.968 21.7024 3.184C21.8944 3.384 22.0144 3.672 22.0144 4.008C22.0144 4.336 21.8944 4.624 21.7024 4.832ZM28.2888 4.016V2.424C28.2888 2.192 28.1048 2 27.8648 2C27.6568 2 27.4808 2.144 27.4408 2.336C27.1528 2.128 26.7848 2 26.3688 2C25.8408 2 25.3528 2.232 25.0088 2.592C24.6648 2.968 24.4488 3.464 24.4488 4.016C24.4488 4.576 24.6648 5.072 25.0088 5.424C25.3528 5.8 25.8408 6.032 26.3688 6.032C26.7608 6.032 27.1288 5.912 27.4168 5.712C27.3128 6.2 26.8888 6.568 26.3688 6.568C26.2008 6.568 26.0488 6.528 25.9128 6.456C25.6888 6.36 25.4408 6.44 25.3368 6.656C25.2248 6.872 25.3208 7.136 25.5288 7.232C25.7768 7.36 26.0728 7.432 26.3688 7.432C27.4328 7.432 28.2888 6.56 28.2888 5.512V4.024V4.016ZM27.1288 4.84C26.9208 5.056 26.6728 5.168 26.3688 5.168C26.0888 5.168 25.8248 5.056 25.6328 4.84C25.4408 4.656 25.3128 4.352 25.3128 4.016C25.3128 3.696 25.4408 3.392 25.6328 3.2C25.8248 2.976 26.0888 2.856 26.3688 2.856C26.6728 2.856 26.9208 2.976 27.1288 3.2C27.3048 3.392 27.4328 3.696 27.4328 4.016C27.4328 4.352 27.3048 4.656 27.1288 4.84ZM30.434 2.008C30.194 2.008 30.002 2.192 30.002 2.448V5.568C30.002 5.808 30.194 6 30.434 6C30.682 6 30.866 5.808 30.866 5.568V2.448C30.866 2.192 30.682 2.008 30.434 2.008ZM30.866 0.832C30.866 0.592 30.682 0.4 30.434 0.4C30.194 0.4 30.002 0.592 30.002 0.832V1C30.002 1.24 30.194 1.44 30.434 1.44C30.682 1.44 30.866 1.24 30.866 1V0.832ZM33.908 2C33.596 2 33.3 2.096 33.06 2.248C32.988 2.096 32.836 2 32.668 2C32.428 2 32.244 2.192 32.244 2.424V3.664V5.576C32.244 5.808 32.428 6 32.668 6C32.876 6 33.052 5.848 33.092 5.656C33.108 5.624 33.108 5.6 33.108 5.576V3.664C33.108 3.216 33.46 2.856 33.908 2.856C34.364 2.856 34.74 3.216 34.74 3.664V5.576C34.74 5.808 34.94 6 35.164 6C35.396 6 35.58 5.808 35.58 5.576V3.664C35.58 2.76 34.836 2 33.908 2ZM40.7263 4.016V2.424C40.7263 2.192 40.5423 2 40.3023 2C40.0943 2 39.9183 2.144 39.8783 2.336C39.5903 2.128 39.2223 2 38.8063 2C38.2783 2 37.7903 2.232 37.4463 2.592C37.1023 2.968 36.8863 3.464 36.8863 4.016C36.8863 4.576 37.1023 5.072 37.4463 5.424C37.7903 5.8 38.2783 6.032 38.8063 6.032C39.1983 6.032 39.5663 5.912 39.8543 5.712C39.7503 6.2 39.3263 6.568 38.8063 6.568C38.6383 6.568 38.4863 6.528 38.3503 6.456C38.1263 6.36 37.8783 6.44 37.7743 6.656C37.6623 6.872 37.7583 7.136 37.9663 7.232C38.2143 7.36 38.5103 7.432 38.8063 7.432C39.8703 7.432 40.7263 6.56 40.7263 5.512V4.024V4.016ZM39.5663 4.84C39.3583 5.056 39.1103 5.168 38.8063 5.168C38.5263 5.168 38.2623 5.056 38.0703 4.84C37.8783 4.656 37.7503 4.352 37.7503 4.016C37.7503 3.696 37.8783 3.392 38.0703 3.2C38.2623 2.976 38.5263 2.856 38.8063 2.856C39.1103 2.856 39.3583 2.976 39.5663 3.2C39.7423 3.392 39.8703 3.696 39.8703 4.016C39.8703 4.352 39.7423 4.656 39.5663 4.84Z" fill="black"/>
</svg>
