<svg width="22" height="20" viewBox="0 0 22 20" fill="none" xmlns="http://www.w3.org/2000/svg">
<path fill-rule="evenodd" clip-rule="evenodd" d="M3 2C2.73478 2 2.48043 2.10536 2.29289 2.29289C2.10536 2.48043 2 2.73478 2 3V9C2 11.3869 2.94821 13.6761 4.63604 15.364C5.47177 16.1997 6.46392 16.8626 7.55585 17.3149C8.64778 17.7672 9.8181 18 11 18C13.3869 18 15.6761 17.0518 17.364 15.364C19.0518 13.6761 20 11.3869 20 9V3C20 2.73478 19.8946 2.48043 19.7071 2.29289C19.5196 2.10536 19.2652 2 19 2H3ZM3 0H19C19.7957 0 20.5587 0.31607 21.1213 0.87868C21.6839 1.44129 22 2.20435 22 3V9C22 11.9174 20.8411 14.7153 18.7782 16.7782C16.7153 18.8411 13.9174 20 11 20C9.55546 20 8.12506 19.7155 6.79048 19.1627C5.4559 18.6099 4.24327 17.7996 3.22183 16.7782C1.15893 14.7153 0 11.9174 0 9V3C0 2.20435 0.31607 1.44129 0.87868 0.87868C1.44129 0.31607 2.20435 0 3 0Z" fill="white"/>
<path fill-rule="evenodd" clip-rule="evenodd" d="M6.29289 7.29289C6.68342 6.90237 7.31658 6.90237 7.70711 7.29289L11 10.5858L14.2929 7.29289C14.6834 6.90237 15.3166 6.90237 15.7071 7.29289C16.0976 7.68342 16.0976 8.31658 15.7071 8.70711L11.7071 12.7071C11.3166 13.0976 10.6834 13.0976 10.2929 12.7071L6.29289 8.70711C5.90237 8.31658 5.90237 7.68342 6.29289 7.29289Z" fill="white"/>
</svg>
