<svg width="30" height="20" viewBox="0 0 30 20" fill="none" xmlns="http://www.w3.org/2000/svg">
<path fill-rule="evenodd" clip-rule="evenodd" d="M2.44103 13.4645C3.37871 12.5268 4.65048 12 5.97656 12H13.9766C15.3026 12 16.5744 12.5268 17.5121 13.4645C18.4498 14.4021 18.9766 15.6739 18.9766 17V19C18.9766 19.5523 18.5288 20 17.9766 20C17.4243 20 16.9766 19.5523 16.9766 19V17C16.9766 16.2044 16.6605 15.4413 16.0979 14.8787C15.5353 14.3161 14.7722 14 13.9766 14H5.97656C5.18091 14 4.41785 14.3161 3.85524 14.8787C3.29263 15.4413 2.97656 16.2044 2.97656 17V19C2.97656 19.5523 2.52885 20 1.97656 20C1.42428 20 0.976562 19.5523 0.976562 19V17C0.976562 15.6739 1.50335 14.4021 2.44103 13.4645Z" fill="white"/>
<path fill-rule="evenodd" clip-rule="evenodd" d="M9.97656 2C8.31971 2 6.97656 3.34315 6.97656 5C6.97656 6.65685 8.31971 8 9.97656 8C11.6334 8 12.9766 6.65685 12.9766 5C12.9766 3.34315 11.6334 2 9.97656 2ZM4.97656 5C4.97656 2.23858 7.21514 0 9.97656 0C12.738 0 14.9766 2.23858 14.9766 5C14.9766 7.76142 12.738 10 9.97656 10C7.21514 10 4.97656 7.76142 4.97656 5Z" fill="white"/>
<path fill-rule="evenodd" clip-rule="evenodd" d="M20.0086 12.88C20.1466 12.3453 20.6921 12.0237 21.2268 12.1618C22.2995 12.4387 23.2498 13.0641 23.9285 13.9397C24.6072 14.8152 24.976 15.8914 24.9768 16.9993L24.9768 19C24.9768 19.5523 24.5291 20 23.9768 20C23.4245 20 22.9768 19.5523 22.9768 19L22.9768 17.0007C22.9768 17.0006 22.9768 17.0008 22.9768 17.0007C22.9762 16.3361 22.755 15.6902 22.3478 15.165C21.9406 14.6396 21.3704 14.2644 20.7268 14.0982C20.1921 13.9602 19.8705 13.4148 20.0086 12.88Z" fill="white"/>
<path fill-rule="evenodd" clip-rule="evenodd" d="M16.0081 0.881962C16.145 0.346936 16.6898 0.0242632 17.2248 0.161251C18.3004 0.436628 19.2536 1.06213 19.9344 1.93914C20.6151 2.81615 20.9846 3.89479 20.9846 5.005C20.9846 6.11521 20.6151 7.19385 19.9344 8.07086C19.2536 8.94787 18.3004 9.57337 17.2248 9.84875C16.6898 9.98574 16.145 9.66307 16.0081 9.12804C15.8711 8.59301 16.1937 8.04824 16.7288 7.91125C17.3741 7.74603 17.946 7.37073 18.3545 6.84452C18.7629 6.31831 18.9846 5.67113 18.9846 5.005C18.9846 4.33887 18.7629 3.69169 18.3545 3.16548C17.946 2.63928 17.3741 2.26398 16.7288 2.09875C16.1937 1.96176 15.8711 1.41699 16.0081 0.881962Z" fill="white"/>
<path fill-rule="evenodd" clip-rule="evenodd" d="M25.9766 4C26.5288 4 26.9766 4.44772 26.9766 5V11C26.9766 11.5523 26.5288 12 25.9766 12C25.4243 12 24.9766 11.5523 24.9766 11V5C24.9766 4.44772 25.4243 4 25.9766 4Z" fill="white"/>
<path fill-rule="evenodd" clip-rule="evenodd" d="M21.9766 8C21.9766 7.44772 22.4243 7 22.9766 7H28.9766C29.5288 7 29.9766 7.44772 29.9766 8C29.9766 8.55228 29.5288 9 28.9766 9H22.9766C22.4243 9 21.9766 8.55228 21.9766 8Z" fill="white"/>
</svg>
