<svg width="44" height="44" viewBox="0 0 44 44" fill="none" xmlns="http://www.w3.org/2000/svg">
<path fill-rule="evenodd" clip-rule="evenodd" d="M13.6853 2.85955C13.1028 2.3596 12.3577 2.08784 11.5887 2.09539L11.5785 2.09549L5.25818 2.09544C4.81843 2.09591 4.38364 2.18773 3.98151 2.365C3.57926 2.54232 3.21858 2.80122 2.92234 3.1251C2.62611 3.44897 2.40081 3.83073 2.26066 4.24601C2.12134 4.65886 2.06917 5.09594 2.10739 5.52976C2.78259 11.8624 4.94227 17.9475 8.41182 23.2927L8.41682 23.3004C11.569 28.2512 15.7749 32.4489 20.7359 35.5951L20.7441 35.6002C26.0756 39.0509 32.1435 41.2061 38.4608 41.8927C38.8974 41.9309 39.3371 41.8782 39.7522 41.7381C40.17 41.5971 40.5537 41.3705 40.8785 41.0731C41.2033 40.7757 41.4622 40.414 41.6386 40.0112C41.8151 39.6085 41.9053 39.1734 41.9035 38.734L41.9035 38.7297V32.4214C41.9035 32.4127 41.9036 32.404 41.9038 32.3953C41.923 31.6216 41.6567 30.8674 41.1549 30.2764C40.654 29.6864 39.9533 29.2999 39.1854 29.1907C37.0861 28.914 35.0249 28.4014 33.0409 27.6625L33.0386 27.6616C32.4717 27.449 31.8554 27.4029 31.263 27.529C30.6715 27.6549 30.1287 27.9471 29.6987 28.3707C29.6981 28.3714 29.6974 28.372 29.6968 28.3727L27.0251 31.0391C26.6918 31.3717 26.1775 31.4411 25.768 31.2087C20.3293 28.1223 15.8258 23.6279 12.733 18.1995C12.4992 17.7891 12.5689 17.273 12.9032 16.9393L15.5768 14.271C16.0013 13.8419 16.2936 13.3007 16.4195 12.7115C16.5456 12.1214 16.4996 11.5076 16.2869 10.9427L16.286 10.9403C15.5456 8.96003 15.0318 6.90253 14.7545 4.807C14.6462 4.05053 14.2665 3.35845 13.6853 2.85955ZM11.5736 0.000203926C12.8478 -0.011001 14.0831 0.439882 15.0499 1.26963C16.018 2.1006 16.6508 3.25495 16.8296 4.51771L16.831 4.52736C17.0874 6.46769 17.5629 8.37287 18.2485 10.2066L17.2672 10.5734L18.2476 10.2042C18.6018 11.1446 18.6785 12.1667 18.4685 13.1493C18.2585 14.132 17.7708 15.0337 17.0633 15.7477L17.0592 15.7518L14.9567 17.8501C17.7083 22.4163 21.5401 26.2401 26.1161 28.9861L28.225 26.8814C28.9404 26.1753 29.8434 25.689 30.8268 25.4797C31.81 25.2704 32.8327 25.3467 33.7739 25.6997C35.611 26.3837 37.5198 26.8582 39.4638 27.1141L39.4732 27.1153C40.7506 27.2952 41.9176 27.9374 42.7521 28.9204C43.5838 29.8999 44.0273 31.1497 43.9987 32.4337V38.7275C44.0014 39.4587 43.8512 40.1822 43.5578 40.852C43.2641 41.5224 42.8334 42.124 42.2934 42.6184C41.7534 43.1128 41.1161 43.4891 40.4222 43.7233C39.7284 43.9575 38.9932 44.0445 38.2638 43.9787L38.245 43.9768C31.6006 43.2563 25.2181 40.9907 19.6099 37.362C14.3924 34.0523 9.96837 29.6372 6.65191 24.4297C3.00286 18.8067 0.731865 12.4049 0.0229823 5.74274L0.02137 5.72637C-0.0444248 4.99973 0.0421097 4.2674 0.275424 3.57604C0.508738 2.88469 0.883687 2.24954 1.37628 1.71099C1.86887 1.17243 2.4683 0.742278 3.13634 0.447787C3.80437 0.153298 4.52644 0.000890612 5.25659 0.000204364L11.5736 0.000203926Z" fill="black"/>
</svg>
