<svg width="20" height="22" viewBox="0 0 20 22" fill="none" xmlns="http://www.w3.org/2000/svg">
<path d="M17 10H3C1.89543 10 1 10.8954 1 12V19C1 20.1046 1.89543 21 3 21H17C18.1046 21 19 20.1046 19 19V12C19 10.8954 18.1046 10 17 10Z" stroke="black" stroke-width="2" stroke-linecap="round" stroke-linejoin="round"/>
<path fill-rule="evenodd" clip-rule="evenodd" d="M10 2C8.93913 2 7.92172 2.42143 7.17157 3.17157C6.42143 3.92172 6 4.93913 6 6V10C6 10.5523 5.55228 11 5 11C4.44772 11 4 10.5523 4 10V6C4 4.4087 4.63214 2.88258 5.75736 1.75736C6.88258 0.632141 8.4087 0 10 0C11.5913 0 13.1174 0.632141 14.2426 1.75736C15.3679 2.88258 16 4.4087 16 6V10C16 10.5523 15.5523 11 15 11C14.4477 11 14 10.5523 14 10V6C14 4.93913 13.5786 3.92172 12.8284 3.17157C12.0783 2.42143 11.0609 2 10 2Z" fill="black"/>
</svg>
