<svg width="16" height="24" viewBox="0 0 16 24" fill="none" xmlns="http://www.w3.org/2000/svg">
<path fill-rule="evenodd" clip-rule="evenodd" d="M8 2C4.68629 2 2 4.68629 2 8C2 11.3137 4.68629 14 8 14C11.3137 14 14 11.3137 14 8C14 4.68629 11.3137 2 8 2ZM0 8C0 3.58172 3.58172 0 8 0C12.4183 0 16 3.58172 16 8C16 12.4183 12.4183 16 8 16C3.58172 16 0 12.4183 0 8Z" fill="black"/>
<path fill-rule="evenodd" clip-rule="evenodd" d="M11.6585 12.8887C12.206 12.816 12.7087 13.201 12.7813 13.7485L13.9913 22.8685C14.0418 23.2491 13.8699 23.625 13.549 23.8358C13.2281 24.0466 12.8148 24.055 12.4855 23.8575L8.00002 21.1662L3.51452 23.8575C3.18525 24.0551 2.77193 24.0466 2.45099 23.8358C2.13004 23.625 1.95817 23.249 2.00873 22.8683L3.21873 13.7583C3.29145 13.2109 3.79421 12.826 4.34169 12.8987C4.88917 12.9714 5.27403 13.4742 5.20132 14.0217L4.26447 21.0751L7.48553 19.1425C7.80221 18.9525 8.19784 18.9525 8.51452 19.1425L11.7359 21.0753L10.7987 14.0115C10.7261 13.464 11.111 12.9613 11.6585 12.8887Z" fill="black"/>
</svg>
