<svg width="14" height="11" viewBox="0 0 14 11" fill="none" xmlns="http://www.w3.org/2000/svg">
<path fill-rule="evenodd" clip-rule="evenodd" d="M7 10.5647L7.21827 10.9518C7.15075 10.9835 7.07592 11 7 11C6.92408 11 6.84925 10.9835 6.78173 10.9518L6.77982 10.9507L6.77536 10.9489L6.75945 10.9414C6.40907 10.7688 6.06483 10.5861 5.72727 10.3935C4.92219 9.93513 4.15425 9.42463 3.42936 8.86592C1.78182 7.58734 0 5.70632 0 3.49042V3.48984C0 1.48172 1.80027 0 3.65018 0C5.11 0 6.28791 0.711549 7 1.80209C7.71273 0.711549 8.89 0 10.3498 0C12.1991 0 14 1.48114 14 3.49042C14 5.70632 12.2175 7.58792 10.5706 8.86592C9.54088 9.65921 8.42507 10.3546 7.24055 10.9414L7.22464 10.9489L7.22018 10.9507L7.21891 10.9512L7 10.5647Z" fill="#2D6CF5"/>
</svg>
