<svg width="14" height="11" viewBox="0 0 14 11" fill="none" xmlns="http://www.w3.org/2000/svg">
<path fill-rule="evenodd" clip-rule="evenodd" d="M3.65018 0.870573C2.32718 0.870573 0.954545 1.96169 0.954545 3.49042C0.954545 5.29367 2.43345 6.9495 4.04791 8.20312C4.95104 8.899 5.92386 9.51595 6.95355 10.0458L7 10.0696L7.04645 10.0464C7.21891 9.95762 7.46709 9.82587 7.76555 9.65524C8.36373 9.31397 9.15918 8.81891 9.95209 8.20312C11.5665 6.9495 13.0455 5.29367 13.0455 3.49042C13.0455 1.96169 11.6728 0.870573 10.3498 0.870573C9.00964 0.870573 7.931 1.67672 7.45245 2.98491C7.42063 3.07136 7.35983 3.14652 7.27865 3.19976C7.19747 3.25301 7.1 3.28165 7 3.28165C6.9 3.28165 6.80253 3.25301 6.72135 3.19976C6.64017 3.14652 6.57937 3.07136 6.54754 2.98491C6.069 1.67672 4.98973 0.870573 3.65018 0.870573ZM7 10.5647L7.21827 10.9518C7.15075 10.9835 7.07592 11 7 11C6.92408 11 6.84925 10.9835 6.78173 10.9518L7 10.5647ZM0 3.48984C0 1.48172 1.80027 0 3.65018 0C5.11 0 6.28791 0.711549 7 1.80209C7.71273 0.711549 8.89 0 10.3498 0C12.1991 0 14 1.48114 14 3.49042C14 5.70632 12.2175 7.58792 10.5706 8.86592C9.54088 9.65921 8.42507 10.3546 7.24055 10.9414L7.22464 10.9489L7.22018 10.9507L7.21891 10.9512L7 10.5647L6.78173 10.9518L6.77982 10.9507L6.77536 10.9489L6.75945 10.9414C6.40907 10.7688 6.06483 10.5861 5.72727 10.3935C4.92219 9.93513 4.15425 9.42463 3.42936 8.86592C1.78182 7.58734 0 5.70632 0 3.49042V3.48984Z" fill="#2D6CF5"/>
</svg>
