<svg width="13" height="13" viewBox="0 0 13 13" fill="none" xmlns="http://www.w3.org/2000/svg">
<path fill-rule="evenodd" clip-rule="evenodd" d="M5.86809 1.62499C3.52469 1.62499 1.62499 3.52469 1.62499 5.86809C1.62499 8.21149 3.52469 10.1112 5.86809 10.1112C8.21149 10.1112 10.1112 8.21149 10.1112 5.86809C10.1112 3.52469 8.21149 1.62499 5.86809 1.62499ZM0 5.86809C0 2.62723 2.62723 0 5.86809 0C9.10895 0 11.7362 2.62723 11.7362 5.86809C11.7362 9.10895 9.10895 11.7362 5.86809 11.7362C2.62723 11.7362 0 9.10895 0 5.86809Z" fill="#C1C1C1"/>
<path fill-rule="evenodd" clip-rule="evenodd" d="M8.86395 8.86397C9.18125 8.54667 9.69569 8.54667 10.013 8.86397L12.762 11.6129C13.0793 11.9302 13.0793 12.4447 12.762 12.762C12.4447 13.0793 11.9302 13.0793 11.6129 12.762L8.86395 10.013C8.54665 9.69571 8.54665 9.18127 8.86395 8.86397Z" fill="#C1C1C1"/>
</svg>
