<svg width="22" height="22" viewBox="0 0 22 22" fill="none" xmlns="http://www.w3.org/2000/svg">
<path d="M21 10.0857V11.0057C20.9988 13.1621 20.3005 15.2604 19.0093 16.9875C17.7182 18.7147 15.9033 19.9782 13.8354 20.5896C11.7674 21.201 9.55726 21.1276 7.53447 20.3803C5.51168 19.633 3.78465 18.2518 2.61096 16.4428C1.43727 14.6338 0.879791 12.4938 1.02168 10.342C1.16356 8.19029 1.99721 6.14205 3.39828 4.5028C4.79935 2.86354 6.69279 1.72111 8.79619 1.24587C10.8996 0.770634 13.1003 0.988061 15.07 1.86572" fill="#1264FB"/>
<path fill-rule="evenodd" clip-rule="evenodd" d="M14.663 2.77915C12.8902 1.98926 10.9096 1.79357 9.01657 2.22128C7.12351 2.649 5.41942 3.67719 4.15845 5.15252C2.89749 6.62785 2.14721 8.47126 2.01951 10.4078C1.89181 12.3444 2.39354 14.2704 3.44987 15.8985C4.50619 17.5266 6.06051 18.7697 7.88102 19.4423C9.70153 20.1149 11.6907 20.1809 13.5518 19.6307C15.413 19.0804 17.0464 17.9432 18.2084 16.3888C19.3705 14.8344 19.9989 12.9459 20 11.0052V10.0857C20 9.53344 20.4477 9.08572 21 9.08572C21.5523 9.08572 22 9.53344 22 10.0857V11.0057C21.9986 13.3778 21.2306 15.6864 19.8103 17.5863C18.39 19.4862 16.3936 20.876 14.1189 21.5486C11.8442 22.2211 9.41299 22.1404 7.18792 21.3183C4.96285 20.4963 3.06312 18.977 1.77206 16.9871C0.480993 14.9971 -0.13223 12.6432 0.0238445 10.2762C0.179919 7.90932 1.09693 5.65626 2.63811 3.85308C4.17929 2.0499 6.26206 0.793217 8.57581 0.270457C10.8896 -0.252303 13.3103 -0.0131332 15.477 0.952297C15.9815 1.17708 16.2082 1.76825 15.9834 2.27272C15.7587 2.7772 15.1675 3.00393 14.663 2.77915Z" fill="white"/>
<path d="M21 3.00586L11 13.0159L8 10.0159" fill="#1264FB"/>
<path fill-rule="evenodd" clip-rule="evenodd" d="M21.7068 2.2984C22.0975 2.68873 22.0978 3.32189 21.7075 3.71261L11.7075 13.7226C11.52 13.9103 11.2656 14.0158 11.0002 14.0159C10.7349 14.0159 10.4805 13.9106 10.2929 13.723L7.29289 10.723C6.90237 10.3324 6.90237 9.69928 7.29289 9.30875C7.68342 8.91823 8.31658 8.91823 8.70711 9.30875L10.9996 11.6013L20.2925 2.29911C20.6829 1.90839 21.316 1.90807 21.7068 2.2984Z" fill="white"/>
</svg>
