<svg width="13" height="16" viewBox="0 0 13 16" fill="none" xmlns="http://www.w3.org/2000/svg">
<path fill-rule="evenodd" clip-rule="evenodd" d="M6.45215 5.25C7.00443 5.25 7.45215 5.69772 7.45215 6.25V15C7.45215 15.5523 7.00443 16 6.45215 16C5.89986 16 5.45215 15.5523 5.45215 15V6.25C5.45215 5.69772 5.89986 5.25 6.45215 5.25Z" fill="#455575"/>
<path fill-rule="evenodd" clip-rule="evenodd" d="M11.3809 0C11.9331 0 12.3809 0.447715 12.3809 1V15C12.3809 15.5523 11.9331 16 11.3809 16C10.8286 16 10.3809 15.5523 10.3809 15V1C10.3809 0.447715 10.8286 0 11.3809 0Z" fill="#455575"/>
<path fill-rule="evenodd" clip-rule="evenodd" d="M1.52246 10.5C2.07475 10.5 2.52246 10.9477 2.52246 11.5V15C2.52246 15.5523 2.07475 16 1.52246 16C0.970176 16 0.522461 15.5523 0.522461 15V11.5C0.522461 10.9477 0.970176 10.5 1.52246 10.5Z" fill="#455575"/>
</svg>
