<svg width="229" height="30" viewBox="0 0 229 30" fill="none" xmlns="http://www.w3.org/2000/svg">
<path d="M1.66016 26.4199L1.14016 27.7499C1.08016 27.9166 0.950156 27.9999 0.750156 27.9999H0.380156C0.320156 27.9999 0.266823 27.9799 0.220156 27.9399C0.180156 27.8932 0.160156 27.8399 0.160156 27.7799C0.160156 27.7466 0.17349 27.6999 0.200156 27.6399L2.65016 21.3299C2.73682 21.1099 2.88682 20.9999 3.10016 20.9999H3.70016C3.91349 20.9999 4.06349 21.1099 4.15016 21.3299L6.59016 27.6399C6.61682 27.6999 6.63016 27.7466 6.63016 27.7799C6.63016 27.8399 6.60682 27.8932 6.56016 27.9399C6.52016 27.9799 6.47016 27.9999 6.41016 27.9999H6.04016C5.84016 27.9999 5.71016 27.9166 5.65016 27.7499L5.13016 26.4199H1.66016ZM4.78016 25.5199L3.40016 21.9499L2.01016 25.5199H4.78016Z" fill="#455575"/>
<path d="M11.117 21.1699C11.117 21.0966 11.1437 21.0332 11.197 20.9799C11.2504 20.9266 11.3137 20.8999 11.387 20.8999H11.757C11.8304 20.8999 11.8937 20.9266 11.947 20.9799C12.0004 21.0332 12.027 21.0966 12.027 21.1699V27.7299C12.027 27.8032 12.0004 27.8666 11.947 27.9199C11.8937 27.9732 11.8304 27.9999 11.757 27.9999H11.387C11.3137 27.9999 11.2504 27.9732 11.197 27.9199C11.1437 27.8666 11.117 27.8032 11.117 27.7299V27.4199C10.777 27.8732 10.2604 28.0999 9.56703 28.0999C9.1537 28.0999 8.77703 28.0032 8.43703 27.8099C8.1037 27.6166 7.8337 27.3399 7.62703 26.9799C7.42703 26.6199 7.31703 26.1999 7.29703 25.7199L7.28703 25.3899L7.29703 25.0699C7.31703 24.5899 7.42703 24.1732 7.62703 23.8199C7.8337 23.4599 8.1037 23.1832 8.43703 22.9899C8.77037 22.7966 9.14703 22.6999 9.56703 22.6999C9.94037 22.6999 10.2537 22.7666 10.507 22.8999C10.767 23.0266 10.9704 23.1866 11.117 23.3799V21.1699ZM11.117 25.0399C11.097 24.5732 10.957 24.2099 10.697 23.9499C10.437 23.6899 10.0937 23.5599 9.66703 23.5599C9.2337 23.5599 8.88703 23.6999 8.62703 23.9799C8.3737 24.2599 8.2337 24.6399 8.20703 25.1199L8.19703 25.3999L8.20703 25.6799C8.2337 26.1599 8.3737 26.5399 8.62703 26.8199C8.88703 27.0999 9.2337 27.2399 9.66703 27.2399C10.0804 27.2399 10.4204 27.1132 10.687 26.8599C10.9537 26.5999 11.097 26.2566 11.117 25.8299C11.1237 25.7632 11.127 25.6299 11.127 25.4299C11.127 25.2366 11.1237 25.1066 11.117 25.0399Z" fill="#455575"/>
<path d="M17.0936 21.1699C17.0936 21.0966 17.1203 21.0332 17.1736 20.9799C17.2269 20.9266 17.2903 20.8999 17.3636 20.8999H17.7336C17.8069 20.8999 17.8703 20.9266 17.9236 20.9799C17.9769 21.0332 18.0036 21.0966 18.0036 21.1699V27.7299C18.0036 27.8032 17.9769 27.8666 17.9236 27.9199C17.8703 27.9732 17.8069 27.9999 17.7336 27.9999H17.3636C17.2903 27.9999 17.2269 27.9732 17.1736 27.9199C17.1203 27.8666 17.0936 27.8032 17.0936 27.7299V27.4199C16.7536 27.8732 16.2369 28.0999 15.5436 28.0999C15.1303 28.0999 14.7536 28.0032 14.4136 27.8099C14.0803 27.6166 13.8103 27.3399 13.6036 26.9799C13.4036 26.6199 13.2936 26.1999 13.2736 25.7199L13.2636 25.3899L13.2736 25.0699C13.2936 24.5899 13.4036 24.1732 13.6036 23.8199C13.8103 23.4599 14.0803 23.1832 14.4136 22.9899C14.7469 22.7966 15.1236 22.6999 15.5436 22.6999C15.9169 22.6999 16.2303 22.7666 16.4836 22.8999C16.7436 23.0266 16.9469 23.1866 17.0936 23.3799V21.1699ZM17.0936 25.0399C17.0736 24.5732 16.9336 24.2099 16.6736 23.9499C16.4136 23.6899 16.0703 23.5599 15.6436 23.5599C15.2103 23.5599 14.8636 23.6999 14.6036 23.9799C14.3503 24.2599 14.2103 24.6399 14.1836 25.1199L14.1736 25.3999L14.1836 25.6799C14.2103 26.1599 14.3503 26.5399 14.6036 26.8199C14.8636 27.0999 15.2103 27.2399 15.6436 27.2399C16.0569 27.2399 16.3969 27.1132 16.6636 26.8599C16.9303 26.5999 17.0736 26.2566 17.0936 25.8299C17.1003 25.7632 17.1036 25.6299 17.1036 25.4299C17.1036 25.2366 17.1003 25.1066 17.0936 25.0399Z" fill="#455575"/>
<path d="M22.1402 22.7999C22.2135 22.7999 22.2768 22.8266 22.3302 22.8799C22.3835 22.9332 22.4102 22.9966 22.4102 23.0699V23.3899C22.4102 23.4632 22.3835 23.5266 22.3302 23.5799C22.2768 23.6332 22.2135 23.6599 22.1402 23.6599H21.5602C21.1868 23.6599 20.9002 23.7599 20.7002 23.9599C20.5068 24.1532 20.4102 24.4366 20.4102 24.8099V27.7299C20.4102 27.8032 20.3835 27.8666 20.3302 27.9199C20.2768 27.9732 20.2135 27.9999 20.1402 27.9999H19.7702C19.6968 27.9999 19.6335 27.9732 19.5802 27.9199C19.5268 27.8666 19.5002 27.8032 19.5002 27.7299V23.0699C19.5002 22.9966 19.5268 22.9332 19.5802 22.8799C19.6335 22.8266 19.6968 22.7999 19.7702 22.7999H20.1402C20.2135 22.7999 20.2768 22.8266 20.3302 22.8799C20.3835 22.9332 20.4102 22.9966 20.4102 23.0699V23.3799C20.5435 23.1799 20.7035 23.0332 20.8902 22.9399C21.0768 22.8466 21.3202 22.7999 21.6202 22.7999H22.1402Z" fill="#455575"/>
<path d="M25.3295 22.6999C26.0428 22.6999 26.6061 22.9266 27.0195 23.3799C27.4328 23.8332 27.6395 24.4499 27.6395 25.2299V25.4999C27.6395 25.5732 27.6128 25.6366 27.5595 25.6899C27.5061 25.7432 27.4428 25.7699 27.3695 25.7699H23.9295V25.8299C23.9428 26.2699 24.0761 26.6166 24.3295 26.8699C24.5895 27.1166 24.9228 27.2399 25.3295 27.2399C25.6628 27.2399 25.9195 27.1966 26.0995 27.1099C26.2861 27.0232 26.4528 26.8999 26.5995 26.7399C26.6528 26.6866 26.6995 26.6499 26.7395 26.6299C26.7861 26.6099 26.8461 26.5999 26.9195 26.5999H27.2195C27.2995 26.5999 27.3661 26.6266 27.4195 26.6799C27.4728 26.7332 27.4961 26.7966 27.4895 26.8699C27.4628 27.0499 27.3628 27.2366 27.1895 27.4299C27.0228 27.6166 26.7795 27.7766 26.4595 27.9099C26.1461 28.0366 25.7695 28.0999 25.3295 28.0999C24.9028 28.0999 24.5228 28.0032 24.1895 27.8099C23.8561 27.6099 23.5895 27.3366 23.3895 26.9899C23.1961 26.6432 23.0795 26.2532 23.0395 25.8199C23.0261 25.6199 23.0195 25.4666 23.0195 25.3599C23.0195 25.2532 23.0261 25.0999 23.0395 24.8999C23.0795 24.4866 23.1961 24.1132 23.3895 23.7799C23.5895 23.4466 23.8528 23.1832 24.1795 22.9899C24.5128 22.7966 24.8961 22.6999 25.3295 22.6999ZM26.7395 24.9299V24.8999C26.7395 24.4932 26.6095 24.1699 26.3495 23.9299C26.0961 23.6832 25.7561 23.5599 25.3295 23.5599C24.9428 23.5599 24.6128 23.6832 24.3395 23.9299C24.0728 24.1766 23.9361 24.4999 23.9295 24.8999V24.9299H26.7395Z" fill="#455575"/>
<path d="M30.0959 25.6899C29.1225 25.4832 28.6359 24.9866 28.6359 24.1999C28.6359 23.9266 28.7092 23.6766 28.8559 23.4499C29.0025 23.2232 29.2192 23.0432 29.5059 22.9099C29.7992 22.7699 30.1559 22.6999 30.5759 22.6999C30.9892 22.6999 31.3459 22.7599 31.6459 22.8799C31.9459 22.9999 32.1725 23.1499 32.3259 23.3299C32.4859 23.5099 32.5659 23.6832 32.5659 23.8499C32.5659 23.9166 32.5392 23.9766 32.4859 24.0299C32.4325 24.0766 32.3692 24.0999 32.2959 24.0999H31.9659C31.8392 24.0999 31.7392 24.0532 31.6659 23.9599C31.4592 23.6932 31.0959 23.5599 30.5759 23.5599C30.2692 23.5599 30.0192 23.6166 29.8259 23.7299C29.6392 23.8432 29.5459 23.9999 29.5459 24.1999C29.5459 24.3666 29.5925 24.4932 29.6859 24.5799C29.7792 24.6666 29.9192 24.7366 30.1059 24.7899C30.2925 24.8432 30.6225 24.9232 31.0959 25.0299C31.6825 25.1566 32.0992 25.3499 32.3459 25.6099C32.5925 25.8699 32.7159 26.1866 32.7159 26.5599C32.7159 26.8332 32.6292 27.0866 32.4559 27.3199C32.2892 27.5532 32.0459 27.7432 31.7259 27.8899C31.4125 28.0299 31.0459 28.0999 30.6259 28.0999C30.2125 28.0999 29.8459 28.0366 29.5259 27.9099C29.2125 27.7766 28.9692 27.6166 28.7959 27.4299C28.6225 27.2432 28.5359 27.0666 28.5359 26.8999C28.5359 26.8332 28.5625 26.7766 28.6159 26.7299C28.6692 26.6766 28.7325 26.6499 28.8059 26.6499H29.1659C29.2259 26.6499 29.2792 26.6566 29.3259 26.6699C29.3725 26.6832 29.4159 26.7199 29.4559 26.7799C29.6759 27.0866 30.0659 27.2399 30.6259 27.2399C30.9392 27.2399 31.2125 27.1766 31.4459 27.0499C31.6859 26.9166 31.8059 26.7532 31.8059 26.5599C31.8059 26.3999 31.7459 26.2732 31.6259 26.1799C31.5125 26.0799 31.3459 25.9999 31.1259 25.9399C30.9059 25.8732 30.5625 25.7899 30.0959 25.6899Z" fill="#455575"/>
<path d="M35.1545 25.6899C34.1811 25.4832 33.6945 24.9866 33.6945 24.1999C33.6945 23.9266 33.7678 23.6766 33.9145 23.4499C34.0611 23.2232 34.2778 23.0432 34.5645 22.9099C34.8578 22.7699 35.2145 22.6999 35.6345 22.6999C36.0478 22.6999 36.4045 22.7599 36.7045 22.8799C37.0045 22.9999 37.2311 23.1499 37.3845 23.3299C37.5445 23.5099 37.6245 23.6832 37.6245 23.8499C37.6245 23.9166 37.5978 23.9766 37.5445 24.0299C37.4911 24.0766 37.4278 24.0999 37.3545 24.0999H37.0245C36.8978 24.0999 36.7978 24.0532 36.7245 23.9599C36.5178 23.6932 36.1545 23.5599 35.6345 23.5599C35.3278 23.5599 35.0778 23.6166 34.8845 23.7299C34.6978 23.8432 34.6045 23.9999 34.6045 24.1999C34.6045 24.3666 34.6511 24.4932 34.7445 24.5799C34.8378 24.6666 34.9778 24.7366 35.1645 24.7899C35.3511 24.8432 35.6811 24.9232 36.1545 25.0299C36.7411 25.1566 37.1578 25.3499 37.4045 25.6099C37.6511 25.8699 37.7745 26.1866 37.7745 26.5599C37.7745 26.8332 37.6878 27.0866 37.5145 27.3199C37.3478 27.5532 37.1045 27.7432 36.7845 27.8899C36.4711 28.0299 36.1045 28.0999 35.6845 28.0999C35.2711 28.0999 34.9045 28.0366 34.5845 27.9099C34.2711 27.7766 34.0278 27.6166 33.8545 27.4299C33.6811 27.2432 33.5945 27.0666 33.5945 26.8999C33.5945 26.8332 33.6211 26.7766 33.6745 26.7299C33.7278 26.6766 33.7911 26.6499 33.8645 26.6499H34.2245C34.2845 26.6499 34.3378 26.6566 34.3845 26.6699C34.4311 26.6832 34.4745 26.7199 34.5145 26.7799C34.7345 27.0866 35.1245 27.2399 35.6845 27.2399C35.9978 27.2399 36.2711 27.1766 36.5045 27.0499C36.7445 26.9166 36.8645 26.7532 36.8645 26.5599C36.8645 26.3999 36.8045 26.2732 36.6845 26.1799C36.5711 26.0799 36.4045 25.9999 36.1845 25.9399C35.9645 25.8732 35.6211 25.7899 35.1545 25.6899Z" fill="#455575"/>
<path d="M79.8022 20.8999C80.3689 20.8999 80.8589 21.0199 81.2722 21.2599C81.6856 21.4999 81.9989 21.8266 82.2122 22.2399C82.4322 22.6466 82.5489 23.1032 82.5622 23.6099C82.5756 24.0099 82.5822 24.3066 82.5822 24.4999C82.5822 24.6932 82.5756 24.9899 82.5622 25.3899C82.5422 25.8966 82.4222 26.3566 82.2022 26.7699C81.9889 27.1766 81.6756 27.4999 81.2622 27.7399C80.8556 27.9799 80.3689 28.0999 79.8022 28.0999C79.2356 28.0999 78.7456 27.9799 78.3322 27.7399C77.9256 27.4999 77.6122 27.1766 77.3922 26.7699C77.1789 26.3566 77.0622 25.8966 77.0422 25.3899C77.0356 25.1899 77.0322 24.8932 77.0322 24.4999C77.0322 24.1066 77.0356 23.8099 77.0422 23.6099C77.0556 23.1032 77.1689 22.6466 77.3822 22.2399C77.6022 21.8266 77.9189 21.4999 78.3322 21.2599C78.7456 21.0199 79.2356 20.8999 79.8022 20.8999ZM79.8022 21.7999C79.2689 21.7999 78.8389 21.9566 78.5122 22.2699C78.1856 22.5832 78.0122 23.0466 77.9922 23.6599C77.9856 23.8599 77.9822 24.1399 77.9822 24.4999C77.9822 24.8599 77.9856 25.1399 77.9922 25.3399C78.0122 25.9532 78.1856 26.4166 78.5122 26.7299C78.8389 27.0432 79.2689 27.1999 79.8022 27.1999C80.3356 27.1999 80.7656 27.0432 81.0922 26.7299C81.4189 26.4166 81.5922 25.9532 81.6122 25.3399C81.6256 24.9399 81.6322 24.6599 81.6322 24.4999C81.6322 24.3399 81.6256 24.0599 81.6122 23.6599C81.5922 23.0466 81.4189 22.5832 81.0922 22.2699C80.7656 21.9566 80.3356 21.7999 79.8022 21.7999Z" fill="#455575"/>
<path d="M86.551 22.7999C86.6243 22.7999 86.6876 22.8266 86.741 22.8799C86.7943 22.9332 86.821 22.9966 86.821 23.0699V23.3899C86.821 23.4632 86.7943 23.5266 86.741 23.5799C86.6876 23.6332 86.6243 23.6599 86.551 23.6599H85.971C85.5976 23.6599 85.311 23.7599 85.111 23.9599C84.9176 24.1532 84.821 24.4366 84.821 24.8099V27.7299C84.821 27.8032 84.7943 27.8666 84.741 27.9199C84.6876 27.9732 84.6243 27.9999 84.551 27.9999H84.181C84.1076 27.9999 84.0443 27.9732 83.991 27.9199C83.9376 27.8666 83.911 27.8032 83.911 27.7299V23.0699C83.911 22.9966 83.9376 22.9332 83.991 22.8799C84.0443 22.8266 84.1076 22.7999 84.181 22.7999H84.551C84.6243 22.7999 84.6876 22.8266 84.741 22.8799C84.7943 22.9332 84.821 22.9966 84.821 23.0699V23.3799C84.9543 23.1799 85.1143 23.0332 85.301 22.9399C85.4876 22.8466 85.731 22.7999 86.031 22.7999H86.551Z" fill="#455575"/>
<path d="M91.2603 21.1699C91.2603 21.0966 91.2869 21.0332 91.3403 20.9799C91.3936 20.9266 91.4569 20.8999 91.5303 20.8999H91.9003C91.9736 20.8999 92.0369 20.9266 92.0903 20.9799C92.1436 21.0332 92.1703 21.0966 92.1703 21.1699V27.7299C92.1703 27.8032 92.1436 27.8666 92.0903 27.9199C92.0369 27.9732 91.9736 27.9999 91.9003 27.9999H91.5303C91.4569 27.9999 91.3936 27.9732 91.3403 27.9199C91.2869 27.8666 91.2603 27.8032 91.2603 27.7299V27.4199C90.9203 27.8732 90.4036 28.0999 89.7103 28.0999C89.2969 28.0999 88.9203 28.0032 88.5803 27.8099C88.2469 27.6166 87.9769 27.3399 87.7703 26.9799C87.5703 26.6199 87.4603 26.1999 87.4403 25.7199L87.4303 25.3899L87.4403 25.0699C87.4603 24.5899 87.5703 24.1732 87.7703 23.8199C87.9769 23.4599 88.2469 23.1832 88.5803 22.9899C88.9136 22.7966 89.2903 22.6999 89.7103 22.6999C90.0836 22.6999 90.3969 22.7666 90.6503 22.8999C90.9103 23.0266 91.1136 23.1866 91.2603 23.3799V21.1699ZM91.2603 25.0399C91.2403 24.5732 91.1003 24.2099 90.8403 23.9499C90.5803 23.6899 90.2369 23.5599 89.8103 23.5599C89.3769 23.5599 89.0303 23.6999 88.7703 23.9799C88.5169 24.2599 88.3769 24.6399 88.3503 25.1199L88.3403 25.3999L88.3503 25.6799C88.3769 26.1599 88.5169 26.5399 88.7703 26.8199C89.0303 27.0999 89.3769 27.2399 89.8103 27.2399C90.2236 27.2399 90.5636 27.1132 90.8303 26.8599C91.0969 26.5999 91.2403 26.2566 91.2603 25.8299C91.2669 25.7632 91.2703 25.6299 91.2703 25.4299C91.2703 25.2366 91.2669 25.1066 91.2603 25.0399Z" fill="#455575"/>
<path d="M95.7168 22.6999C96.4302 22.6999 96.9935 22.9266 97.4068 23.3799C97.8202 23.8332 98.0268 24.4499 98.0268 25.2299V25.4999C98.0268 25.5732 98.0002 25.6366 97.9468 25.6899C97.8935 25.7432 97.8302 25.7699 97.7568 25.7699H94.3168V25.8299C94.3302 26.2699 94.4635 26.6166 94.7168 26.8699C94.9768 27.1166 95.3102 27.2399 95.7168 27.2399C96.0502 27.2399 96.3068 27.1966 96.4868 27.1099C96.6735 27.0232 96.8402 26.8999 96.9868 26.7399C97.0402 26.6866 97.0868 26.6499 97.1268 26.6299C97.1735 26.6099 97.2335 26.5999 97.3068 26.5999H97.6068C97.6868 26.5999 97.7535 26.6266 97.8068 26.6799C97.8602 26.7332 97.8835 26.7966 97.8768 26.8699C97.8502 27.0499 97.7502 27.2366 97.5768 27.4299C97.4102 27.6166 97.1668 27.7766 96.8468 27.9099C96.5335 28.0366 96.1568 28.0999 95.7168 28.0999C95.2902 28.0999 94.9102 28.0032 94.5768 27.8099C94.2435 27.6099 93.9768 27.3366 93.7768 26.9899C93.5835 26.6432 93.4668 26.2532 93.4268 25.8199C93.4135 25.6199 93.4068 25.4666 93.4068 25.3599C93.4068 25.2532 93.4135 25.0999 93.4268 24.8999C93.4668 24.4866 93.5835 24.1132 93.7768 23.7799C93.9768 23.4466 94.2402 23.1832 94.5668 22.9899C94.9002 22.7966 95.2835 22.6999 95.7168 22.6999ZM97.1268 24.9299V24.8999C97.1268 24.4932 96.9968 24.1699 96.7368 23.9299C96.4835 23.6832 96.1435 23.5599 95.7168 23.5599C95.3302 23.5599 95.0002 23.6832 94.7268 23.9299C94.4602 24.1766 94.3235 24.4999 94.3168 24.8999V24.9299H97.1268Z" fill="#455575"/>
<path d="M101.873 22.7999C101.947 22.7999 102.01 22.8266 102.063 22.8799C102.117 22.9332 102.143 22.9966 102.143 23.0699V23.3899C102.143 23.4632 102.117 23.5266 102.063 23.5799C102.01 23.6332 101.947 23.6599 101.873 23.6599H101.293C100.92 23.6599 100.633 23.7599 100.433 23.9599C100.24 24.1532 100.143 24.4366 100.143 24.8099V27.7299C100.143 27.8032 100.117 27.8666 100.063 27.9199C100.01 27.9732 99.9466 27.9999 99.8732 27.9999H99.5032C99.4299 27.9999 99.3666 27.9732 99.3132 27.9199C99.2599 27.8666 99.2332 27.8032 99.2332 27.7299V23.0699C99.2332 22.9966 99.2599 22.9332 99.3132 22.8799C99.3666 22.8266 99.4299 22.7999 99.5032 22.7999H99.8732C99.9466 22.7999 100.01 22.8266 100.063 22.8799C100.117 22.9332 100.143 22.9966 100.143 23.0699V23.3799C100.277 23.1799 100.437 23.0332 100.623 22.9399C100.81 22.8466 101.053 22.7999 101.353 22.7999H101.873Z" fill="#455575"/>
<path d="M110.254 22.7099C110.261 22.7699 110.241 22.8232 110.194 22.8699C110.147 22.9099 110.094 22.9299 110.034 22.9299H109.624C109.544 22.9299 109.484 22.9166 109.444 22.8899C109.404 22.8566 109.361 22.7966 109.314 22.7099C109.207 22.5032 109.021 22.2999 108.754 22.0999C108.494 21.8999 108.147 21.7999 107.714 21.7999C107.314 21.7999 106.974 21.8899 106.694 22.0699C106.421 22.2499 106.284 22.5066 106.284 22.8399C106.284 23.0666 106.351 23.2532 106.484 23.3999C106.624 23.5399 106.831 23.6632 107.104 23.7699C107.384 23.8699 107.804 23.9932 108.364 24.1399C109.124 24.3399 109.661 24.5866 109.974 24.8799C110.294 25.1666 110.454 25.5599 110.454 26.0599C110.454 26.4599 110.341 26.8132 110.114 27.1199C109.894 27.4266 109.581 27.6666 109.174 27.8399C108.767 28.0132 108.297 28.0999 107.764 28.0999C107.271 28.0999 106.821 28.0066 106.414 27.8199C106.007 27.6332 105.687 27.3966 105.454 27.1099C105.221 26.8166 105.097 26.5266 105.084 26.2399C105.084 26.1799 105.104 26.1299 105.144 26.0899C105.191 26.0432 105.244 26.0199 105.304 26.0199H105.714C105.787 26.0199 105.847 26.0366 105.894 26.0699C105.941 26.0966 105.984 26.1532 106.024 26.2399C106.131 26.4799 106.324 26.6999 106.604 26.8999C106.891 27.0999 107.277 27.1999 107.764 27.1999C108.251 27.1999 108.661 27.0966 108.994 26.8899C109.334 26.6766 109.504 26.3999 109.504 26.0599C109.504 25.8399 109.414 25.6566 109.234 25.5099C109.061 25.3566 108.821 25.2299 108.514 25.1299C108.207 25.0232 107.757 24.8932 107.164 24.7399C106.517 24.5732 106.051 24.3332 105.764 24.0199C105.477 23.6999 105.334 23.3066 105.334 22.8399C105.334 22.4932 105.424 22.1732 105.604 21.8799C105.784 21.5866 106.054 21.3499 106.414 21.1699C106.774 20.9899 107.207 20.8999 107.714 20.8999C108.221 20.8999 108.664 20.9999 109.044 21.1999C109.424 21.3932 109.717 21.6332 109.924 21.9199C110.131 22.2066 110.241 22.4699 110.254 22.7099Z" fill="#455575"/>
<path d="M111.586 23.0699C111.586 22.9966 111.612 22.9332 111.666 22.8799C111.719 22.8266 111.782 22.7999 111.856 22.7999H112.226C112.299 22.7999 112.362 22.8266 112.416 22.8799C112.469 22.9332 112.496 22.9966 112.496 23.0699V25.7099C112.496 26.2166 112.609 26.5999 112.836 26.8599C113.069 27.1132 113.406 27.2399 113.846 27.2399C114.272 27.2399 114.602 27.1099 114.836 26.8499C115.076 26.5899 115.196 26.2099 115.196 25.7099V23.0699C115.196 22.9966 115.222 22.9332 115.276 22.8799C115.329 22.8266 115.392 22.7999 115.466 22.7999H115.836C115.909 22.7999 115.972 22.8266 116.026 22.8799C116.079 22.9332 116.106 22.9966 116.106 23.0699V27.7299C116.106 27.8032 116.079 27.8666 116.026 27.9199C115.972 27.9732 115.909 27.9999 115.836 27.9999H115.466C115.392 27.9999 115.329 27.9732 115.276 27.9199C115.222 27.8666 115.196 27.8032 115.196 27.7299V27.4199C114.849 27.8732 114.349 28.0999 113.696 28.0999C113.056 28.0999 112.542 27.8999 112.156 27.4999C111.776 27.0999 111.586 26.5532 111.586 25.8599V23.0699Z" fill="#455575"/>
<path d="M118.512 23.3799C118.672 23.1732 118.852 23.0099 119.052 22.8899C119.252 22.7632 119.519 22.6999 119.852 22.6999C120.632 22.6999 121.179 22.9899 121.492 23.5699C121.686 23.2899 121.906 23.0766 122.152 22.9299C122.399 22.7766 122.722 22.6999 123.122 22.6999C123.776 22.6999 124.259 22.8966 124.572 23.2899C124.892 23.6832 125.052 24.2399 125.052 24.9599V27.7299C125.052 27.8032 125.026 27.8666 124.972 27.9199C124.919 27.9732 124.856 27.9999 124.782 27.9999H124.412C124.339 27.9999 124.276 27.9732 124.222 27.9199C124.169 27.8666 124.142 27.8032 124.142 27.7299V25.0599C124.142 24.0599 123.749 23.5599 122.962 23.5599C122.602 23.5599 122.316 23.6799 122.102 23.9199C121.889 24.1599 121.782 24.5166 121.782 24.9899V27.7299C121.782 27.8032 121.756 27.8666 121.702 27.9199C121.649 27.9732 121.586 27.9999 121.512 27.9999H121.142C121.069 27.9999 121.006 27.9732 120.952 27.9199C120.899 27.8666 120.872 27.8032 120.872 27.7299V25.0599C120.872 24.0599 120.479 23.5599 119.692 23.5599C119.332 23.5599 119.046 23.6799 118.832 23.9199C118.619 24.1599 118.512 24.5166 118.512 24.9899V27.7299C118.512 27.8032 118.486 27.8666 118.432 27.9199C118.379 27.9732 118.316 27.9999 118.242 27.9999H117.872C117.799 27.9999 117.736 27.9732 117.682 27.9199C117.629 27.8666 117.602 27.8032 117.602 27.7299V23.0699C117.602 22.9966 117.629 22.9332 117.682 22.8799C117.736 22.8266 117.799 22.7999 117.872 22.7999H118.242C118.316 22.7999 118.379 22.8266 118.432 22.8799C118.486 22.9332 118.512 22.9966 118.512 23.0699V23.3799Z" fill="#455575"/>
<path d="M127.409 23.3799C127.569 23.1732 127.749 23.0099 127.949 22.8899C128.149 22.7632 128.416 22.6999 128.749 22.6999C129.529 22.6999 130.076 22.9899 130.389 23.5699C130.582 23.2899 130.802 23.0766 131.049 22.9299C131.296 22.7766 131.619 22.6999 132.019 22.6999C132.672 22.6999 133.156 22.8966 133.469 23.2899C133.789 23.6832 133.949 24.2399 133.949 24.9599V27.7299C133.949 27.8032 133.922 27.8666 133.869 27.9199C133.816 27.9732 133.752 27.9999 133.679 27.9999H133.309C133.236 27.9999 133.172 27.9732 133.119 27.9199C133.066 27.8666 133.039 27.8032 133.039 27.7299V25.0599C133.039 24.0599 132.646 23.5599 131.859 23.5599C131.499 23.5599 131.212 23.6799 130.999 23.9199C130.786 24.1599 130.679 24.5166 130.679 24.9899V27.7299C130.679 27.8032 130.652 27.8666 130.599 27.9199C130.546 27.9732 130.482 27.9999 130.409 27.9999H130.039C129.966 27.9999 129.902 27.9732 129.849 27.9199C129.796 27.8666 129.769 27.8032 129.769 27.7299V25.0599C129.769 24.0599 129.376 23.5599 128.589 23.5599C128.229 23.5599 127.942 23.6799 127.729 23.9199C127.516 24.1599 127.409 24.5166 127.409 24.9899V27.7299C127.409 27.8032 127.382 27.8666 127.329 27.9199C127.276 27.9732 127.212 27.9999 127.139 27.9999H126.769C126.696 27.9999 126.632 27.9732 126.579 27.9199C126.526 27.8666 126.499 27.8032 126.499 27.7299V23.0699C126.499 22.9966 126.526 22.9332 126.579 22.8799C126.632 22.8266 126.696 22.7999 126.769 22.7999H127.139C127.212 22.7999 127.276 22.8266 127.329 22.8799C127.382 22.9332 127.409 22.9966 127.409 23.0699V23.3799Z" fill="#455575"/>
<path d="M137.445 22.6999C138.159 22.6999 138.722 22.9266 139.135 23.3799C139.549 23.8332 139.755 24.4499 139.755 25.2299V25.4999C139.755 25.5732 139.729 25.6366 139.675 25.6899C139.622 25.7432 139.559 25.7699 139.485 25.7699H136.045V25.8299C136.059 26.2699 136.192 26.6166 136.445 26.8699C136.705 27.1166 137.039 27.2399 137.445 27.2399C137.779 27.2399 138.035 27.1966 138.215 27.1099C138.402 27.0232 138.569 26.8999 138.715 26.7399C138.769 26.6866 138.815 26.6499 138.855 26.6299C138.902 26.6099 138.962 26.5999 139.035 26.5999H139.335C139.415 26.5999 139.482 26.6266 139.535 26.6799C139.589 26.7332 139.612 26.7966 139.605 26.8699C139.579 27.0499 139.479 27.2366 139.305 27.4299C139.139 27.6166 138.895 27.7766 138.575 27.9099C138.262 28.0366 137.885 28.0999 137.445 28.0999C137.019 28.0999 136.639 28.0032 136.305 27.8099C135.972 27.6099 135.705 27.3366 135.505 26.9899C135.312 26.6432 135.195 26.2532 135.155 25.8199C135.142 25.6199 135.135 25.4666 135.135 25.3599C135.135 25.2532 135.142 25.0999 135.155 24.8999C135.195 24.4866 135.312 24.1132 135.505 23.7799C135.705 23.4466 135.969 23.1832 136.295 22.9899C136.629 22.7966 137.012 22.6999 137.445 22.6999ZM138.855 24.9299V24.8999C138.855 24.4932 138.725 24.1699 138.465 23.9299C138.212 23.6832 137.872 23.5599 137.445 23.5599C137.059 23.5599 136.729 23.6832 136.455 23.9299C136.189 24.1766 136.052 24.4999 136.045 24.8999V24.9299H138.855Z" fill="#455575"/>
<path d="M143.602 22.7999C143.675 22.7999 143.738 22.8266 143.792 22.8799C143.845 22.9332 143.872 22.9966 143.872 23.0699V23.3899C143.872 23.4632 143.845 23.5266 143.792 23.5799C143.738 23.6332 143.675 23.6599 143.602 23.6599H143.022C142.648 23.6599 142.362 23.7599 142.162 23.9599C141.968 24.1532 141.872 24.4366 141.872 24.8099V27.7299C141.872 27.8032 141.845 27.8666 141.792 27.9199C141.738 27.9732 141.675 27.9999 141.602 27.9999H141.232C141.158 27.9999 141.095 27.9732 141.042 27.9199C140.988 27.8666 140.962 27.8032 140.962 27.7299V23.0699C140.962 22.9966 140.988 22.9332 141.042 22.8799C141.095 22.8266 141.158 22.7999 141.232 22.7999H141.602C141.675 22.7999 141.738 22.8266 141.792 22.8799C141.845 22.9332 141.872 22.9966 141.872 23.0699V23.3799C142.005 23.1799 142.165 23.0332 142.352 22.9399C142.538 22.8466 142.782 22.7999 143.082 22.7999H143.602Z" fill="#455575"/>
<path d="M146.271 29.6599C146.211 29.8199 146.114 29.8999 145.981 29.8999H145.571C145.504 29.8999 145.448 29.8766 145.401 29.8299C145.354 29.7832 145.331 29.7266 145.331 29.6599C145.331 29.6332 145.334 29.6099 145.341 29.5899L146.301 27.4999L144.321 23.1099C144.314 23.0899 144.311 23.0666 144.311 23.0399C144.311 22.9732 144.334 22.9166 144.381 22.8699C144.428 22.8232 144.484 22.7999 144.551 22.7999H144.961C145.094 22.7999 145.191 22.8799 145.251 23.0399L146.791 26.4399L148.351 23.0399C148.411 22.8799 148.508 22.7999 148.641 22.7999H149.051C149.118 22.7999 149.174 22.8232 149.221 22.8699C149.268 22.9166 149.291 22.9732 149.291 23.0399C149.291 23.0666 149.288 23.0899 149.281 23.1099L146.271 29.6599Z" fill="#455575"/>
<path d="M190.668 20.9999C191.362 20.9999 191.935 21.1799 192.388 21.5399C192.848 21.8999 193.078 22.4266 193.078 23.1199C193.078 23.5866 192.968 23.9832 192.748 24.3099C192.535 24.6366 192.245 24.8799 191.878 25.0399C191.518 25.1999 191.115 25.2799 190.668 25.2799H188.828V27.7299C188.828 27.8032 188.802 27.8666 188.748 27.9199C188.695 27.9732 188.632 27.9999 188.558 27.9999H188.148C188.075 27.9999 188.012 27.9732 187.958 27.9199C187.905 27.8666 187.878 27.8032 187.878 27.7299V21.2699C187.878 21.1966 187.905 21.1332 187.958 21.0799C188.012 21.0266 188.075 20.9999 188.148 20.9999H190.668ZM190.618 24.3799C191.105 24.3799 191.478 24.2766 191.738 24.0699C191.998 23.8566 192.128 23.5399 192.128 23.1199C192.128 22.3066 191.625 21.8999 190.618 21.8999H188.828V24.3799H190.618Z" fill="#455575"/>
<path d="M197.255 24.7099V24.5799C197.255 24.2532 197.145 24.0032 196.925 23.8299C196.712 23.6499 196.432 23.5599 196.085 23.5599C195.818 23.5599 195.608 23.6066 195.455 23.6999C195.308 23.7866 195.168 23.9199 195.035 24.0999C194.995 24.1532 194.952 24.1899 194.905 24.2099C194.858 24.2299 194.795 24.2399 194.715 24.2399H194.415C194.342 24.2399 194.275 24.2132 194.215 24.1599C194.162 24.1066 194.138 24.0432 194.145 23.9699C194.165 23.7699 194.262 23.5732 194.435 23.3799C194.615 23.1799 194.852 23.0166 195.145 22.8899C195.438 22.7632 195.752 22.6999 196.085 22.6999C196.705 22.6999 197.205 22.8732 197.585 23.2199C197.972 23.5666 198.165 24.0532 198.165 24.6799V27.7299C198.165 27.8032 198.138 27.8666 198.085 27.9199C198.032 27.9732 197.968 27.9999 197.895 27.9999H197.525C197.452 27.9999 197.388 27.9732 197.335 27.9199C197.282 27.8666 197.255 27.8032 197.255 27.7299V27.3199C197.148 27.5599 196.922 27.7499 196.575 27.8899C196.228 28.0299 195.882 28.0999 195.535 28.0999C195.195 28.0999 194.892 28.0399 194.625 27.9199C194.358 27.7932 194.152 27.6232 194.005 27.4099C193.865 27.1966 193.795 26.9566 193.795 26.6899C193.795 26.1899 193.982 25.7999 194.355 25.5199C194.728 25.2332 195.225 25.0399 195.845 24.9399L197.255 24.7099ZM197.255 25.5099L196.075 25.6999C195.642 25.7666 195.305 25.8766 195.065 26.0299C194.825 26.1766 194.705 26.3632 194.705 26.5899C194.705 26.7566 194.782 26.9066 194.935 27.0399C195.088 27.1732 195.322 27.2399 195.635 27.2399C196.115 27.2399 196.505 27.1032 196.805 26.8299C197.105 26.5566 197.255 26.1999 197.255 25.7599V25.5099Z" fill="#455575"/>
<path d="M201.154 29.6599C201.094 29.8199 200.997 29.8999 200.864 29.8999H200.454C200.387 29.8999 200.331 29.8766 200.284 29.8299C200.237 29.7832 200.214 29.7266 200.214 29.6599C200.214 29.6332 200.217 29.6099 200.224 29.5899L201.184 27.4999L199.204 23.1099C199.197 23.0899 199.194 23.0666 199.194 23.0399C199.194 22.9732 199.217 22.9166 199.264 22.8699C199.311 22.8232 199.367 22.7999 199.434 22.7999H199.844C199.977 22.7999 200.074 22.8799 200.134 23.0399L201.674 26.4399L203.234 23.0399C203.294 22.8799 203.391 22.7999 203.524 22.7999H203.934C204.001 22.7999 204.057 22.8232 204.104 22.8699C204.151 22.9166 204.174 22.9732 204.174 23.0399C204.174 23.0666 204.171 23.0899 204.164 23.1099L201.154 29.6599Z" fill="#455575"/>
<path d="M206.1 23.3799C206.26 23.1732 206.44 23.0099 206.64 22.8899C206.84 22.7632 207.107 22.6999 207.44 22.6999C208.22 22.6999 208.767 22.9899 209.08 23.5699C209.274 23.2899 209.494 23.0766 209.74 22.9299C209.987 22.7766 210.31 22.6999 210.71 22.6999C211.364 22.6999 211.847 22.8966 212.16 23.2899C212.48 23.6832 212.64 24.2399 212.64 24.9599V27.7299C212.64 27.8032 212.614 27.8666 212.56 27.9199C212.507 27.9732 212.444 27.9999 212.37 27.9999H212C211.927 27.9999 211.864 27.9732 211.81 27.9199C211.757 27.8666 211.73 27.8032 211.73 27.7299V25.0599C211.73 24.0599 211.337 23.5599 210.55 23.5599C210.19 23.5599 209.904 23.6799 209.69 23.9199C209.477 24.1599 209.37 24.5166 209.37 24.9899V27.7299C209.37 27.8032 209.344 27.8666 209.29 27.9199C209.237 27.9732 209.174 27.9999 209.1 27.9999H208.73C208.657 27.9999 208.594 27.9732 208.54 27.9199C208.487 27.8666 208.46 27.8032 208.46 27.7299V25.0599C208.46 24.0599 208.067 23.5599 207.28 23.5599C206.92 23.5599 206.634 23.6799 206.42 23.9199C206.207 24.1599 206.1 24.5166 206.1 24.9899V27.7299C206.1 27.8032 206.074 27.8666 206.02 27.9199C205.967 27.9732 205.904 27.9999 205.83 27.9999H205.46C205.387 27.9999 205.324 27.9732 205.27 27.9199C205.217 27.8666 205.19 27.8032 205.19 27.7299V23.0699C205.19 22.9966 205.217 22.9332 205.27 22.8799C205.324 22.8266 205.387 22.7999 205.46 22.7999H205.83C205.904 22.7999 205.967 22.8266 206.02 22.8799C206.074 22.9332 206.1 22.9966 206.1 23.0699V23.3799Z" fill="#455575"/>
<path d="M216.137 22.6999C216.85 22.6999 217.413 22.9266 217.827 23.3799C218.24 23.8332 218.447 24.4499 218.447 25.2299V25.4999C218.447 25.5732 218.42 25.6366 218.367 25.6899C218.313 25.7432 218.25 25.7699 218.177 25.7699H214.737V25.8299C214.75 26.2699 214.883 26.6166 215.137 26.8699C215.397 27.1166 215.73 27.2399 216.137 27.2399C216.47 27.2399 216.727 27.1966 216.907 27.1099C217.093 27.0232 217.26 26.8999 217.407 26.7399C217.46 26.6866 217.507 26.6499 217.547 26.6299C217.593 26.6099 217.653 26.5999 217.727 26.5999H218.027C218.107 26.5999 218.173 26.6266 218.227 26.6799C218.28 26.7332 218.303 26.7966 218.297 26.8699C218.27 27.0499 218.17 27.2366 217.997 27.4299C217.83 27.6166 217.587 27.7766 217.267 27.9099C216.953 28.0366 216.577 28.0999 216.137 28.0999C215.71 28.0999 215.33 28.0032 214.997 27.8099C214.663 27.6099 214.397 27.3366 214.197 26.9899C214.003 26.6432 213.887 26.2532 213.847 25.8199C213.833 25.6199 213.827 25.4666 213.827 25.3599C213.827 25.2532 213.833 25.0999 213.847 24.8999C213.887 24.4866 214.003 24.1132 214.197 23.7799C214.397 23.4466 214.66 23.1832 214.987 22.9899C215.32 22.7966 215.703 22.6999 216.137 22.6999ZM217.547 24.9299V24.8999C217.547 24.4932 217.417 24.1699 217.157 23.9299C216.903 23.6832 216.563 23.5599 216.137 23.5599C215.75 23.5599 215.42 23.6832 215.147 23.9299C214.88 24.1766 214.743 24.4999 214.737 24.8999V24.9299H217.547Z" fill="#455575"/>
<path d="M224.273 27.7299C224.273 27.8032 224.247 27.8666 224.193 27.9199C224.14 27.9732 224.077 27.9999 224.003 27.9999H223.633C223.56 27.9999 223.497 27.9732 223.443 27.9199C223.39 27.8666 223.363 27.8032 223.363 27.7299V25.0899C223.363 24.5899 223.24 24.2099 222.993 23.9499C222.747 23.6899 222.403 23.5599 221.963 23.5599C221.53 23.5599 221.187 23.6899 220.933 23.9499C220.687 24.2099 220.563 24.5899 220.563 25.0899V27.7299C220.563 27.8032 220.537 27.8666 220.483 27.9199C220.43 27.9732 220.367 27.9999 220.293 27.9999H219.923C219.85 27.9999 219.787 27.9732 219.733 27.9199C219.68 27.8666 219.653 27.8032 219.653 27.7299V23.0699C219.653 22.9966 219.68 22.9332 219.733 22.8799C219.787 22.8266 219.85 22.7999 219.923 22.7999H220.293C220.367 22.7999 220.43 22.8266 220.483 22.8799C220.537 22.9332 220.563 22.9966 220.563 23.0699V23.3799C220.71 23.1866 220.91 23.0266 221.163 22.8999C221.423 22.7666 221.74 22.6999 222.113 22.6999C222.533 22.6999 222.907 22.7899 223.233 22.9699C223.56 23.1499 223.813 23.4099 223.993 23.7499C224.18 24.0832 224.273 24.4799 224.273 24.9399V27.7299Z" fill="#455575"/>
<path d="M227.087 26.2499C227.087 26.5366 227.144 26.7566 227.257 26.9099C227.377 27.0632 227.601 27.1399 227.927 27.1399H228.457C228.531 27.1399 228.594 27.1666 228.647 27.2199C228.701 27.2732 228.727 27.3366 228.727 27.4099V27.7299C228.727 27.8032 228.701 27.8666 228.647 27.9199C228.594 27.9732 228.531 27.9999 228.457 27.9999H227.827C227.261 27.9999 226.844 27.8532 226.577 27.5599C226.311 27.2599 226.177 26.8232 226.177 26.2499V23.6599H225.437C225.364 23.6599 225.301 23.6332 225.247 23.5799C225.194 23.5266 225.167 23.4632 225.167 23.3899V23.0699C225.167 22.9966 225.194 22.9332 225.247 22.8799C225.301 22.8266 225.364 22.7999 225.437 22.7999H226.177V21.1699C226.177 21.0966 226.204 21.0332 226.257 20.9799C226.311 20.9266 226.374 20.8999 226.447 20.8999H226.817C226.891 20.8999 226.954 20.9266 227.007 20.9799C227.061 21.0332 227.087 21.0966 227.087 21.1699V22.7999H228.357C228.431 22.7999 228.494 22.8266 228.547 22.8799C228.601 22.9332 228.627 22.9966 228.627 23.0699V23.3899C228.627 23.4632 228.601 23.5266 228.547 23.5799C228.494 23.6332 228.431 23.6599 228.357 23.6599H227.087V26.2499Z" fill="#455575"/>
<path d="M27 7.5C27 11.6421 23.6421 15 19.5 15C15.3579 15 12 11.6421 12 7.5C12 3.35786 15.3579 0 19.5 0C23.6421 0 27 3.35786 27 7.5Z" fill="white"/>
<path fill-rule="evenodd" clip-rule="evenodd" d="M19.5 13C22.5376 13 25 10.5376 25 7.5C25 4.46243 22.5376 2 19.5 2C16.4624 2 14 4.46243 14 7.5C14 10.5376 16.4624 13 19.5 13ZM19.5 15C23.6421 15 27 11.6421 27 7.5C27 3.35786 23.6421 0 19.5 0C15.3579 0 12 3.35786 12 7.5C12 11.6421 15.3579 15 19.5 15Z" fill="#DCDCDC"/>
<path fill-rule="evenodd" clip-rule="evenodd" d="M29 7L104 7V9L29 9V7Z" fill="#DCDCDC"/>
<path fill-rule="evenodd" clip-rule="evenodd" d="M123 7L198 7V9L123 9V7Z" fill="#DCDCDC"/>
<path d="M121 7.5C121 11.6421 117.642 15 113.5 15C109.358 15 106 11.6421 106 7.5C106 3.35786 109.358 0 113.5 0C117.642 0 121 3.35786 121 7.5Z" fill="#FF370E"/>
<path fill-rule="evenodd" clip-rule="evenodd" d="M113.5 13C116.538 13 119 10.5376 119 7.5C119 4.46243 116.538 2 113.5 2C110.462 2 108 4.46243 108 7.5C108 10.5376 110.462 13 113.5 13ZM113.5 15C117.642 15 121 11.6421 121 7.5C121 3.35786 117.642 0 113.5 0C109.358 0 106 3.35786 106 7.5C106 11.6421 109.358 15 113.5 15Z" fill="#FF370E"/>
<path d="M215 7.5C215 11.6421 211.642 15 207.5 15C203.358 15 200 11.6421 200 7.5C200 3.35786 203.358 0 207.5 0C211.642 0 215 3.35786 215 7.5Z" fill="white"/>
<path fill-rule="evenodd" clip-rule="evenodd" d="M207.5 13C210.538 13 213 10.5376 213 7.5C213 4.46243 210.538 2 207.5 2C204.462 2 202 4.46243 202 7.5C202 10.5376 204.462 13 207.5 13ZM207.5 15C211.642 15 215 11.6421 215 7.5C215 3.35786 211.642 0 207.5 0C203.358 0 200 3.35786 200 7.5C200 11.6421 203.358 15 207.5 15Z" fill="#DCDCDC"/>
</svg>
