<svg width="229" height="30" viewBox="0 0 229 30" fill="none" xmlns="http://www.w3.org/2000/svg">
<path fill-rule="evenodd" clip-rule="evenodd" d="M29 7L104 7V9L29 9V7Z" fill="#DCDCDC"/>
<path fill-rule="evenodd" clip-rule="evenodd" d="M123 7L198 7V9L123 9V7Z" fill="#DCDCDC"/>
<path d="M1.66016 26.4199L1.14016 27.7499C1.08016 27.9166 0.950156 27.9999 0.750156 27.9999H0.380156C0.320156 27.9999 0.266823 27.9799 0.220156 27.9399C0.180156 27.8932 0.160156 27.8399 0.160156 27.7799C0.160156 27.7466 0.17349 27.6999 0.200156 27.6399L2.65016 21.3299C2.73682 21.1099 2.88682 20.9999 3.10016 20.9999H3.70016C3.91349 20.9999 4.06349 21.1099 4.15016 21.3299L6.59016 27.6399C6.61682 27.6999 6.63016 27.7466 6.63016 27.7799C6.63016 27.8399 6.60682 27.8932 6.56016 27.9399C6.52016 27.9799 6.47016 27.9999 6.41016 27.9999H6.04016C5.84016 27.9999 5.71016 27.9166 5.65016 27.7499L5.13016 26.4199H1.66016ZM4.78016 25.5199L3.40016 21.9499L2.01016 25.5199H4.78016Z" fill="#455575"/>
<path d="M11.117 21.1699C11.117 21.0966 11.1437 21.0332 11.197 20.9799C11.2504 20.9266 11.3137 20.8999 11.387 20.8999H11.757C11.8304 20.8999 11.8937 20.9266 11.947 20.9799C12.0004 21.0332 12.027 21.0966 12.027 21.1699V27.7299C12.027 27.8032 12.0004 27.8666 11.947 27.9199C11.8937 27.9732 11.8304 27.9999 11.757 27.9999H11.387C11.3137 27.9999 11.2504 27.9732 11.197 27.9199C11.1437 27.8666 11.117 27.8032 11.117 27.7299V27.4199C10.777 27.8732 10.2604 28.0999 9.56703 28.0999C9.1537 28.0999 8.77703 28.0032 8.43703 27.8099C8.1037 27.6166 7.8337 27.3399 7.62703 26.9799C7.42703 26.6199 7.31703 26.1999 7.29703 25.7199L7.28703 25.3899L7.29703 25.0699C7.31703 24.5899 7.42703 24.1732 7.62703 23.8199C7.8337 23.4599 8.1037 23.1832 8.43703 22.9899C8.77037 22.7966 9.14703 22.6999 9.56703 22.6999C9.94037 22.6999 10.2537 22.7666 10.507 22.8999C10.767 23.0266 10.9704 23.1866 11.117 23.3799V21.1699ZM11.117 25.0399C11.097 24.5732 10.957 24.2099 10.697 23.9499C10.437 23.6899 10.0937 23.5599 9.66703 23.5599C9.2337 23.5599 8.88703 23.6999 8.62703 23.9799C8.3737 24.2599 8.2337 24.6399 8.20703 25.1199L8.19703 25.3999L8.20703 25.6799C8.2337 26.1599 8.3737 26.5399 8.62703 26.8199C8.88703 27.0999 9.2337 27.2399 9.66703 27.2399C10.0804 27.2399 10.4204 27.1132 10.687 26.8599C10.9537 26.5999 11.097 26.2566 11.117 25.8299C11.1237 25.7632 11.127 25.6299 11.127 25.4299C11.127 25.2366 11.1237 25.1066 11.117 25.0399Z" fill="#455575"/>
<path d="M17.0936 21.1699C17.0936 21.0966 17.1203 21.0332 17.1736 20.9799C17.2269 20.9266 17.2903 20.8999 17.3636 20.8999H17.7336C17.8069 20.8999 17.8703 20.9266 17.9236 20.9799C17.9769 21.0332 18.0036 21.0966 18.0036 21.1699V27.7299C18.0036 27.8032 17.9769 27.8666 17.9236 27.9199C17.8703 27.9732 17.8069 27.9999 17.7336 27.9999H17.3636C17.2903 27.9999 17.2269 27.9732 17.1736 27.9199C17.1203 27.8666 17.0936 27.8032 17.0936 27.7299V27.4199C16.7536 27.8732 16.2369 28.0999 15.5436 28.0999C15.1303 28.0999 14.7536 28.0032 14.4136 27.8099C14.0803 27.6166 13.8103 27.3399 13.6036 26.9799C13.4036 26.6199 13.2936 26.1999 13.2736 25.7199L13.2636 25.3899L13.2736 25.0699C13.2936 24.5899 13.4036 24.1732 13.6036 23.8199C13.8103 23.4599 14.0803 23.1832 14.4136 22.9899C14.7469 22.7966 15.1236 22.6999 15.5436 22.6999C15.9169 22.6999 16.2303 22.7666 16.4836 22.8999C16.7436 23.0266 16.9469 23.1866 17.0936 23.3799V21.1699ZM17.0936 25.0399C17.0736 24.5732 16.9336 24.2099 16.6736 23.9499C16.4136 23.6899 16.0703 23.5599 15.6436 23.5599C15.2103 23.5599 14.8636 23.6999 14.6036 23.9799C14.3503 24.2599 14.2103 24.6399 14.1836 25.1199L14.1736 25.3999L14.1836 25.6799C14.2103 26.1599 14.3503 26.5399 14.6036 26.8199C14.8636 27.0999 15.2103 27.2399 15.6436 27.2399C16.0569 27.2399 16.3969 27.1132 16.6636 26.8599C16.9303 26.5999 17.0736 26.2566 17.0936 25.8299C17.1003 25.7632 17.1036 25.6299 17.1036 25.4299C17.1036 25.2366 17.1003 25.1066 17.0936 25.0399Z" fill="#455575"/>
<path d="M22.1402 22.7999C22.2135 22.7999 22.2768 22.8266 22.3302 22.8799C22.3835 22.9332 22.4102 22.9966 22.4102 23.0699V23.3899C22.4102 23.4632 22.3835 23.5266 22.3302 23.5799C22.2768 23.6332 22.2135 23.6599 22.1402 23.6599H21.5602C21.1868 23.6599 20.9002 23.7599 20.7002 23.9599C20.5068 24.1532 20.4102 24.4366 20.4102 24.8099V27.7299C20.4102 27.8032 20.3835 27.8666 20.3302 27.9199C20.2768 27.9732 20.2135 27.9999 20.1402 27.9999H19.7702C19.6968 27.9999 19.6335 27.9732 19.5802 27.9199C19.5268 27.8666 19.5002 27.8032 19.5002 27.7299V23.0699C19.5002 22.9966 19.5268 22.9332 19.5802 22.8799C19.6335 22.8266 19.6968 22.7999 19.7702 22.7999H20.1402C20.2135 22.7999 20.2768 22.8266 20.3302 22.8799C20.3835 22.9332 20.4102 22.9966 20.4102 23.0699V23.3799C20.5435 23.1799 20.7035 23.0332 20.8902 22.9399C21.0768 22.8466 21.3202 22.7999 21.6202 22.7999H22.1402Z" fill="#455575"/>
<path d="M25.3295 22.6999C26.0428 22.6999 26.6061 22.9266 27.0195 23.3799C27.4328 23.8332 27.6395 24.4499 27.6395 25.2299V25.4999C27.6395 25.5732 27.6128 25.6366 27.5595 25.6899C27.5061 25.7432 27.4428 25.7699 27.3695 25.7699H23.9295V25.8299C23.9428 26.2699 24.0761 26.6166 24.3295 26.8699C24.5895 27.1166 24.9228 27.2399 25.3295 27.2399C25.6628 27.2399 25.9195 27.1966 26.0995 27.1099C26.2861 27.0232 26.4528 26.8999 26.5995 26.7399C26.6528 26.6866 26.6995 26.6499 26.7395 26.6299C26.7861 26.6099 26.8461 26.5999 26.9195 26.5999H27.2195C27.2995 26.5999 27.3661 26.6266 27.4195 26.6799C27.4728 26.7332 27.4961 26.7966 27.4895 26.8699C27.4628 27.0499 27.3628 27.2366 27.1895 27.4299C27.0228 27.6166 26.7795 27.7766 26.4595 27.9099C26.1461 28.0366 25.7695 28.0999 25.3295 28.0999C24.9028 28.0999 24.5228 28.0032 24.1895 27.8099C23.8561 27.6099 23.5895 27.3366 23.3895 26.9899C23.1961 26.6432 23.0795 26.2532 23.0395 25.8199C23.0261 25.6199 23.0195 25.4666 23.0195 25.3599C23.0195 25.2532 23.0261 25.0999 23.0395 24.8999C23.0795 24.4866 23.1961 24.1132 23.3895 23.7799C23.5895 23.4466 23.8528 23.1832 24.1795 22.9899C24.5128 22.7966 24.8961 22.6999 25.3295 22.6999ZM26.7395 24.9299V24.8999C26.7395 24.4932 26.6095 24.1699 26.3495 23.9299C26.0961 23.6832 25.7561 23.5599 25.3295 23.5599C24.9428 23.5599 24.6128 23.6832 24.3395 23.9299C24.0728 24.1766 23.9361 24.4999 23.9295 24.8999V24.9299H26.7395Z" fill="#455575"/>
<path d="M30.0959 25.6899C29.1225 25.4832 28.6359 24.9866 28.6359 24.1999C28.6359 23.9266 28.7092 23.6766 28.8559 23.4499C29.0025 23.2232 29.2192 23.0432 29.5059 22.9099C29.7992 22.7699 30.1559 22.6999 30.5759 22.6999C30.9892 22.6999 31.3459 22.7599 31.6459 22.8799C31.9459 22.9999 32.1725 23.1499 32.3259 23.3299C32.4859 23.5099 32.5659 23.6832 32.5659 23.8499C32.5659 23.9166 32.5392 23.9766 32.4859 24.0299C32.4325 24.0766 32.3692 24.0999 32.2959 24.0999H31.9659C31.8392 24.0999 31.7392 24.0532 31.6659 23.9599C31.4592 23.6932 31.0959 23.5599 30.5759 23.5599C30.2692 23.5599 30.0192 23.6166 29.8259 23.7299C29.6392 23.8432 29.5459 23.9999 29.5459 24.1999C29.5459 24.3666 29.5925 24.4932 29.6859 24.5799C29.7792 24.6666 29.9192 24.7366 30.1059 24.7899C30.2925 24.8432 30.6225 24.9232 31.0959 25.0299C31.6825 25.1566 32.0992 25.3499 32.3459 25.6099C32.5925 25.8699 32.7159 26.1866 32.7159 26.5599C32.7159 26.8332 32.6292 27.0866 32.4559 27.3199C32.2892 27.5532 32.0459 27.7432 31.7259 27.8899C31.4125 28.0299 31.0459 28.0999 30.6259 28.0999C30.2125 28.0999 29.8459 28.0366 29.5259 27.9099C29.2125 27.7766 28.9692 27.6166 28.7959 27.4299C28.6225 27.2432 28.5359 27.0666 28.5359 26.8999C28.5359 26.8332 28.5625 26.7766 28.6159 26.7299C28.6692 26.6766 28.7325 26.6499 28.8059 26.6499H29.1659C29.2259 26.6499 29.2792 26.6566 29.3259 26.6699C29.3725 26.6832 29.4159 26.7199 29.4559 26.7799C29.6759 27.0866 30.0659 27.2399 30.6259 27.2399C30.9392 27.2399 31.2125 27.1766 31.4459 27.0499C31.6859 26.9166 31.8059 26.7532 31.8059 26.5599C31.8059 26.3999 31.7459 26.2732 31.6259 26.1799C31.5125 26.0799 31.3459 25.9999 31.1259 25.9399C30.9059 25.8732 30.5625 25.7899 30.0959 25.6899Z" fill="#455575"/>
<path d="M35.1545 25.6899C34.1811 25.4832 33.6945 24.9866 33.6945 24.1999C33.6945 23.9266 33.7678 23.6766 33.9145 23.4499C34.0611 23.2232 34.2778 23.0432 34.5645 22.9099C34.8578 22.7699 35.2145 22.6999 35.6345 22.6999C36.0478 22.6999 36.4045 22.7599 36.7045 22.8799C37.0045 22.9999 37.2311 23.1499 37.3845 23.3299C37.5445 23.5099 37.6245 23.6832 37.6245 23.8499C37.6245 23.9166 37.5978 23.9766 37.5445 24.0299C37.4911 24.0766 37.4278 24.0999 37.3545 24.0999H37.0245C36.8978 24.0999 36.7978 24.0532 36.7245 23.9599C36.5178 23.6932 36.1545 23.5599 35.6345 23.5599C35.3278 23.5599 35.0778 23.6166 34.8845 23.7299C34.6978 23.8432 34.6045 23.9999 34.6045 24.1999C34.6045 24.3666 34.6511 24.4932 34.7445 24.5799C34.8378 24.6666 34.9778 24.7366 35.1645 24.7899C35.3511 24.8432 35.6811 24.9232 36.1545 25.0299C36.7411 25.1566 37.1578 25.3499 37.4045 25.6099C37.6511 25.8699 37.7745 26.1866 37.7745 26.5599C37.7745 26.8332 37.6878 27.0866 37.5145 27.3199C37.3478 27.5532 37.1045 27.7432 36.7845 27.8899C36.4711 28.0299 36.1045 28.0999 35.6845 28.0999C35.2711 28.0999 34.9045 28.0366 34.5845 27.9099C34.2711 27.7766 34.0278 27.6166 33.8545 27.4299C33.6811 27.2432 33.5945 27.0666 33.5945 26.8999C33.5945 26.8332 33.6211 26.7766 33.6745 26.7299C33.7278 26.6766 33.7911 26.6499 33.8645 26.6499H34.2245C34.2845 26.6499 34.3378 26.6566 34.3845 26.6699C34.4311 26.6832 34.4745 26.7199 34.5145 26.7799C34.7345 27.0866 35.1245 27.2399 35.6845 27.2399C35.9978 27.2399 36.2711 27.1766 36.5045 27.0499C36.7445 26.9166 36.8645 26.7532 36.8645 26.5599C36.8645 26.3999 36.8045 26.2732 36.6845 26.1799C36.5711 26.0799 36.4045 25.9999 36.1845 25.9399C35.9645 25.8732 35.6211 25.7899 35.1545 25.6899Z" fill="#455575"/>
<path d="M79.8027 20.8999C80.3694 20.8999 80.8594 21.0199 81.2727 21.2599C81.686 21.4999 81.9994 21.8266 82.2127 22.2399C82.4327 22.6466 82.5494 23.1032 82.5627 23.6099C82.576 24.0099 82.5827 24.3066 82.5827 24.4999C82.5827 24.6932 82.576 24.9899 82.5627 25.3899C82.5427 25.8966 82.4227 26.3566 82.2027 26.7699C81.9894 27.1766 81.676 27.4999 81.2627 27.7399C80.856 27.9799 80.3694 28.0999 79.8027 28.0999C79.236 28.0999 78.746 27.9799 78.3327 27.7399C77.926 27.4999 77.6127 27.1766 77.3927 26.7699C77.1794 26.3566 77.0627 25.8966 77.0427 25.3899C77.036 25.1899 77.0327 24.8932 77.0327 24.4999C77.0327 24.1066 77.036 23.8099 77.0427 23.6099C77.056 23.1032 77.1694 22.6466 77.3827 22.2399C77.6027 21.8266 77.9194 21.4999 78.3327 21.2599C78.746 21.0199 79.236 20.8999 79.8027 20.8999ZM79.8027 21.7999C79.2694 21.7999 78.8394 21.9566 78.5127 22.2699C78.186 22.5832 78.0127 23.0466 77.9927 23.6599C77.986 23.8599 77.9827 24.1399 77.9827 24.4999C77.9827 24.8599 77.986 25.1399 77.9927 25.3399C78.0127 25.9532 78.186 26.4166 78.5127 26.7299C78.8394 27.0432 79.2694 27.1999 79.8027 27.1999C80.336 27.1999 80.766 27.0432 81.0927 26.7299C81.4194 26.4166 81.5927 25.9532 81.6127 25.3399C81.626 24.9399 81.6327 24.6599 81.6327 24.4999C81.6327 24.3399 81.626 24.0599 81.6127 23.6599C81.5927 23.0466 81.4194 22.5832 81.0927 22.2699C80.766 21.9566 80.336 21.7999 79.8027 21.7999Z" fill="#455575"/>
<path d="M86.5515 22.7999C86.6248 22.7999 86.6881 22.8266 86.7415 22.8799C86.7948 22.9332 86.8215 22.9966 86.8215 23.0699V23.3899C86.8215 23.4632 86.7948 23.5266 86.7415 23.5799C86.6881 23.6332 86.6248 23.6599 86.5515 23.6599H85.9715C85.5981 23.6599 85.3115 23.7599 85.1115 23.9599C84.9181 24.1532 84.8215 24.4366 84.8215 24.8099V27.7299C84.8215 27.8032 84.7948 27.8666 84.7415 27.9199C84.6881 27.9732 84.6248 27.9999 84.5515 27.9999H84.1815C84.1081 27.9999 84.0448 27.9732 83.9915 27.9199C83.9381 27.8666 83.9115 27.8032 83.9115 27.7299V23.0699C83.9115 22.9966 83.9381 22.9332 83.9915 22.8799C84.0448 22.8266 84.1081 22.7999 84.1815 22.7999H84.5515C84.6248 22.7999 84.6881 22.8266 84.7415 22.8799C84.7948 22.9332 84.8215 22.9966 84.8215 23.0699V23.3799C84.9548 23.1799 85.1148 23.0332 85.3015 22.9399C85.4881 22.8466 85.7315 22.7999 86.0315 22.7999H86.5515Z" fill="#455575"/>
<path d="M91.2608 21.1699C91.2608 21.0966 91.2874 21.0332 91.3408 20.9799C91.3941 20.9266 91.4574 20.8999 91.5308 20.8999H91.9008C91.9741 20.8999 92.0374 20.9266 92.0908 20.9799C92.1441 21.0332 92.1708 21.0966 92.1708 21.1699V27.7299C92.1708 27.8032 92.1441 27.8666 92.0908 27.9199C92.0374 27.9732 91.9741 27.9999 91.9008 27.9999H91.5308C91.4574 27.9999 91.3941 27.9732 91.3408 27.9199C91.2874 27.8666 91.2608 27.8032 91.2608 27.7299V27.4199C90.9208 27.8732 90.4041 28.0999 89.7108 28.0999C89.2974 28.0999 88.9208 28.0032 88.5808 27.8099C88.2474 27.6166 87.9774 27.3399 87.7708 26.9799C87.5708 26.6199 87.4608 26.1999 87.4408 25.7199L87.4308 25.3899L87.4408 25.0699C87.4608 24.5899 87.5708 24.1732 87.7708 23.8199C87.9774 23.4599 88.2474 23.1832 88.5808 22.9899C88.9141 22.7966 89.2908 22.6999 89.7108 22.6999C90.0841 22.6999 90.3974 22.7666 90.6508 22.8999C90.9108 23.0266 91.1141 23.1866 91.2608 23.3799V21.1699ZM91.2608 25.0399C91.2408 24.5732 91.1008 24.2099 90.8408 23.9499C90.5808 23.6899 90.2374 23.5599 89.8108 23.5599C89.3774 23.5599 89.0308 23.6999 88.7708 23.9799C88.5174 24.2599 88.3774 24.6399 88.3508 25.1199L88.3408 25.3999L88.3508 25.6799C88.3774 26.1599 88.5174 26.5399 88.7708 26.8199C89.0308 27.0999 89.3774 27.2399 89.8108 27.2399C90.2241 27.2399 90.5641 27.1132 90.8308 26.8599C91.0974 26.5999 91.2408 26.2566 91.2608 25.8299C91.2674 25.7632 91.2708 25.6299 91.2708 25.4299C91.2708 25.2366 91.2674 25.1066 91.2608 25.0399Z" fill="#455575"/>
<path d="M95.7173 22.6999C96.4307 22.6999 96.994 22.9266 97.4073 23.3799C97.8207 23.8332 98.0273 24.4499 98.0273 25.2299V25.4999C98.0273 25.5732 98.0007 25.6366 97.9473 25.6899C97.894 25.7432 97.8307 25.7699 97.7573 25.7699H94.3173V25.8299C94.3307 26.2699 94.464 26.6166 94.7173 26.8699C94.9773 27.1166 95.3107 27.2399 95.7173 27.2399C96.0507 27.2399 96.3073 27.1966 96.4873 27.1099C96.674 27.0232 96.8407 26.8999 96.9873 26.7399C97.0407 26.6866 97.0873 26.6499 97.1273 26.6299C97.174 26.6099 97.234 26.5999 97.3073 26.5999H97.6073C97.6873 26.5999 97.754 26.6266 97.8073 26.6799C97.8607 26.7332 97.884 26.7966 97.8773 26.8699C97.8507 27.0499 97.7507 27.2366 97.5773 27.4299C97.4107 27.6166 97.1673 27.7766 96.8473 27.9099C96.534 28.0366 96.1573 28.0999 95.7173 28.0999C95.2907 28.0999 94.9107 28.0032 94.5773 27.8099C94.244 27.6099 93.9773 27.3366 93.7773 26.9899C93.584 26.6432 93.4673 26.2532 93.4273 25.8199C93.414 25.6199 93.4073 25.4666 93.4073 25.3599C93.4073 25.2532 93.414 25.0999 93.4273 24.8999C93.4673 24.4866 93.584 24.1132 93.7773 23.7799C93.9773 23.4466 94.2407 23.1832 94.5673 22.9899C94.9007 22.7966 95.284 22.6999 95.7173 22.6999ZM97.1273 24.9299V24.8999C97.1273 24.4932 96.9973 24.1699 96.7373 23.9299C96.484 23.6832 96.144 23.5599 95.7173 23.5599C95.3307 23.5599 95.0007 23.6832 94.7273 23.9299C94.4607 24.1766 94.324 24.4999 94.3173 24.8999V24.9299H97.1273Z" fill="#455575"/>
<path d="M101.874 22.7999C101.947 22.7999 102.01 22.8266 102.064 22.8799C102.117 22.9332 102.144 22.9966 102.144 23.0699V23.3899C102.144 23.4632 102.117 23.5266 102.064 23.5799C102.01 23.6332 101.947 23.6599 101.874 23.6599H101.294C100.92 23.6599 100.634 23.7599 100.434 23.9599C100.24 24.1532 100.144 24.4366 100.144 24.8099V27.7299C100.144 27.8032 100.117 27.8666 100.064 27.9199C100.01 27.9732 99.9471 27.9999 99.8737 27.9999H99.5037C99.4304 27.9999 99.3671 27.9732 99.3137 27.9199C99.2604 27.8666 99.2337 27.8032 99.2337 27.7299V23.0699C99.2337 22.9966 99.2604 22.9332 99.3137 22.8799C99.3671 22.8266 99.4304 22.7999 99.5037 22.7999H99.8737C99.9471 22.7999 100.01 22.8266 100.064 22.8799C100.117 22.9332 100.144 22.9966 100.144 23.0699V23.3799C100.277 23.1799 100.437 23.0332 100.624 22.9399C100.81 22.8466 101.054 22.7999 101.354 22.7999H101.874Z" fill="#455575"/>
<path d="M110.254 22.7099C110.261 22.7699 110.241 22.8232 110.194 22.8699C110.148 22.9099 110.094 22.9299 110.034 22.9299H109.624C109.544 22.9299 109.484 22.9166 109.444 22.8899C109.404 22.8566 109.361 22.7966 109.314 22.7099C109.208 22.5032 109.021 22.2999 108.754 22.0999C108.494 21.8999 108.148 21.7999 107.714 21.7999C107.314 21.7999 106.974 21.8899 106.694 22.0699C106.421 22.2499 106.284 22.5066 106.284 22.8399C106.284 23.0666 106.351 23.2532 106.484 23.3999C106.624 23.5399 106.831 23.6632 107.104 23.7699C107.384 23.8699 107.804 23.9932 108.364 24.1399C109.124 24.3399 109.661 24.5866 109.974 24.8799C110.294 25.1666 110.454 25.5599 110.454 26.0599C110.454 26.4599 110.341 26.8132 110.114 27.1199C109.894 27.4266 109.581 27.6666 109.174 27.8399C108.768 28.0132 108.298 28.0999 107.764 28.0999C107.271 28.0999 106.821 28.0066 106.414 27.8199C106.008 27.6332 105.688 27.3966 105.454 27.1099C105.221 26.8166 105.098 26.5266 105.084 26.2399C105.084 26.1799 105.104 26.1299 105.144 26.0899C105.191 26.0432 105.244 26.0199 105.304 26.0199H105.714C105.788 26.0199 105.848 26.0366 105.894 26.0699C105.941 26.0966 105.984 26.1532 106.024 26.2399C106.131 26.4799 106.324 26.6999 106.604 26.8999C106.891 27.0999 107.278 27.1999 107.764 27.1999C108.251 27.1999 108.661 27.0966 108.994 26.8899C109.334 26.6766 109.504 26.3999 109.504 26.0599C109.504 25.8399 109.414 25.6566 109.234 25.5099C109.061 25.3566 108.821 25.2299 108.514 25.1299C108.208 25.0232 107.758 24.8932 107.164 24.7399C106.518 24.5732 106.051 24.3332 105.764 24.0199C105.478 23.6999 105.334 23.3066 105.334 22.8399C105.334 22.4932 105.424 22.1732 105.604 21.8799C105.784 21.5866 106.054 21.3499 106.414 21.1699C106.774 20.9899 107.208 20.8999 107.714 20.8999C108.221 20.8999 108.664 20.9999 109.044 21.1999C109.424 21.3932 109.718 21.6332 109.924 21.9199C110.131 22.2066 110.241 22.4699 110.254 22.7099Z" fill="#455575"/>
<path d="M111.586 23.0699C111.586 22.9966 111.613 22.9332 111.666 22.8799C111.719 22.8266 111.783 22.7999 111.856 22.7999H112.226C112.299 22.7999 112.363 22.8266 112.416 22.8799C112.469 22.9332 112.496 22.9966 112.496 23.0699V25.7099C112.496 26.2166 112.609 26.5999 112.836 26.8599C113.069 27.1132 113.406 27.2399 113.846 27.2399C114.273 27.2399 114.603 27.1099 114.836 26.8499C115.076 26.5899 115.196 26.2099 115.196 25.7099V23.0699C115.196 22.9966 115.223 22.9332 115.276 22.8799C115.329 22.8266 115.393 22.7999 115.466 22.7999H115.836C115.909 22.7999 115.973 22.8266 116.026 22.8799C116.079 22.9332 116.106 22.9966 116.106 23.0699V27.7299C116.106 27.8032 116.079 27.8666 116.026 27.9199C115.973 27.9732 115.909 27.9999 115.836 27.9999H115.466C115.393 27.9999 115.329 27.9732 115.276 27.9199C115.223 27.8666 115.196 27.8032 115.196 27.7299V27.4199C114.849 27.8732 114.349 28.0999 113.696 28.0999C113.056 28.0999 112.543 27.8999 112.156 27.4999C111.776 27.0999 111.586 26.5532 111.586 25.8599V23.0699Z" fill="#455575"/>
<path d="M118.513 23.3799C118.673 23.1732 118.853 23.0099 119.053 22.8899C119.253 22.7632 119.52 22.6999 119.853 22.6999C120.633 22.6999 121.18 22.9899 121.493 23.5699C121.686 23.2899 121.906 23.0766 122.153 22.9299C122.4 22.7766 122.723 22.6999 123.123 22.6999C123.776 22.6999 124.26 22.8966 124.573 23.2899C124.893 23.6832 125.053 24.2399 125.053 24.9599V27.7299C125.053 27.8032 125.026 27.8666 124.973 27.9199C124.92 27.9732 124.856 27.9999 124.783 27.9999H124.413C124.34 27.9999 124.276 27.9732 124.223 27.9199C124.17 27.8666 124.143 27.8032 124.143 27.7299V25.0599C124.143 24.0599 123.75 23.5599 122.963 23.5599C122.603 23.5599 122.316 23.6799 122.103 23.9199C121.89 24.1599 121.783 24.5166 121.783 24.9899V27.7299C121.783 27.8032 121.756 27.8666 121.703 27.9199C121.65 27.9732 121.586 27.9999 121.513 27.9999H121.143C121.07 27.9999 121.006 27.9732 120.953 27.9199C120.9 27.8666 120.873 27.8032 120.873 27.7299V25.0599C120.873 24.0599 120.48 23.5599 119.693 23.5599C119.333 23.5599 119.046 23.6799 118.833 23.9199C118.62 24.1599 118.513 24.5166 118.513 24.9899V27.7299C118.513 27.8032 118.486 27.8666 118.433 27.9199C118.38 27.9732 118.316 27.9999 118.243 27.9999H117.873C117.8 27.9999 117.736 27.9732 117.683 27.9199C117.63 27.8666 117.603 27.8032 117.603 27.7299V23.0699C117.603 22.9966 117.63 22.9332 117.683 22.8799C117.736 22.8266 117.8 22.7999 117.873 22.7999H118.243C118.316 22.7999 118.38 22.8266 118.433 22.8799C118.486 22.9332 118.513 22.9966 118.513 23.0699V23.3799Z" fill="#455575"/>
<path d="M127.409 23.3799C127.569 23.1732 127.749 23.0099 127.949 22.8899C128.149 22.7632 128.416 22.6999 128.749 22.6999C129.529 22.6999 130.076 22.9899 130.389 23.5699C130.583 23.2899 130.803 23.0766 131.049 22.9299C131.296 22.7766 131.619 22.6999 132.019 22.6999C132.673 22.6999 133.156 22.8966 133.469 23.2899C133.789 23.6832 133.949 24.2399 133.949 24.9599V27.7299C133.949 27.8032 133.923 27.8666 133.869 27.9199C133.816 27.9732 133.753 27.9999 133.679 27.9999H133.309C133.236 27.9999 133.173 27.9732 133.119 27.9199C133.066 27.8666 133.039 27.8032 133.039 27.7299V25.0599C133.039 24.0599 132.646 23.5599 131.859 23.5599C131.499 23.5599 131.213 23.6799 130.999 23.9199C130.786 24.1599 130.679 24.5166 130.679 24.9899V27.7299C130.679 27.8032 130.653 27.8666 130.599 27.9199C130.546 27.9732 130.483 27.9999 130.409 27.9999H130.039C129.966 27.9999 129.903 27.9732 129.849 27.9199C129.796 27.8666 129.769 27.8032 129.769 27.7299V25.0599C129.769 24.0599 129.376 23.5599 128.589 23.5599C128.229 23.5599 127.943 23.6799 127.729 23.9199C127.516 24.1599 127.409 24.5166 127.409 24.9899V27.7299C127.409 27.8032 127.383 27.8666 127.329 27.9199C127.276 27.9732 127.213 27.9999 127.139 27.9999H126.769C126.696 27.9999 126.633 27.9732 126.579 27.9199C126.526 27.8666 126.499 27.8032 126.499 27.7299V23.0699C126.499 22.9966 126.526 22.9332 126.579 22.8799C126.633 22.8266 126.696 22.7999 126.769 22.7999H127.139C127.213 22.7999 127.276 22.8266 127.329 22.8799C127.383 22.9332 127.409 22.9966 127.409 23.0699V23.3799Z" fill="#455575"/>
<path d="M137.446 22.6999C138.159 22.6999 138.723 22.9266 139.136 23.3799C139.549 23.8332 139.756 24.4499 139.756 25.2299V25.4999C139.756 25.5732 139.729 25.6366 139.676 25.6899C139.623 25.7432 139.559 25.7699 139.486 25.7699H136.046V25.8299C136.059 26.2699 136.193 26.6166 136.446 26.8699C136.706 27.1166 137.039 27.2399 137.446 27.2399C137.779 27.2399 138.036 27.1966 138.216 27.1099C138.403 27.0232 138.569 26.8999 138.716 26.7399C138.769 26.6866 138.816 26.6499 138.856 26.6299C138.903 26.6099 138.963 26.5999 139.036 26.5999H139.336C139.416 26.5999 139.483 26.6266 139.536 26.6799C139.589 26.7332 139.613 26.7966 139.606 26.8699C139.579 27.0499 139.479 27.2366 139.306 27.4299C139.139 27.6166 138.896 27.7766 138.576 27.9099C138.263 28.0366 137.886 28.0999 137.446 28.0999C137.019 28.0999 136.639 28.0032 136.306 27.8099C135.973 27.6099 135.706 27.3366 135.506 26.9899C135.313 26.6432 135.196 26.2532 135.156 25.8199C135.143 25.6199 135.136 25.4666 135.136 25.3599C135.136 25.2532 135.143 25.0999 135.156 24.8999C135.196 24.4866 135.313 24.1132 135.506 23.7799C135.706 23.4466 135.969 23.1832 136.296 22.9899C136.629 22.7966 137.013 22.6999 137.446 22.6999ZM138.856 24.9299V24.8999C138.856 24.4932 138.726 24.1699 138.466 23.9299C138.213 23.6832 137.873 23.5599 137.446 23.5599C137.059 23.5599 136.729 23.6832 136.456 23.9299C136.189 24.1766 136.053 24.4999 136.046 24.8999V24.9299H138.856Z" fill="#455575"/>
<path d="M143.602 22.7999C143.676 22.7999 143.739 22.8266 143.792 22.8799C143.846 22.9332 143.872 22.9966 143.872 23.0699V23.3899C143.872 23.4632 143.846 23.5266 143.792 23.5799C143.739 23.6332 143.676 23.6599 143.602 23.6599H143.022C142.649 23.6599 142.362 23.7599 142.162 23.9599C141.969 24.1532 141.872 24.4366 141.872 24.8099V27.7299C141.872 27.8032 141.846 27.8666 141.792 27.9199C141.739 27.9732 141.676 27.9999 141.602 27.9999H141.232C141.159 27.9999 141.096 27.9732 141.042 27.9199C140.989 27.8666 140.962 27.8032 140.962 27.7299V23.0699C140.962 22.9966 140.989 22.9332 141.042 22.8799C141.096 22.8266 141.159 22.7999 141.232 22.7999H141.602C141.676 22.7999 141.739 22.8266 141.792 22.8799C141.846 22.9332 141.872 22.9966 141.872 23.0699V23.3799C142.006 23.1799 142.166 23.0332 142.352 22.9399C142.539 22.8466 142.782 22.7999 143.082 22.7999H143.602Z" fill="#455575"/>
<path d="M146.272 29.6599C146.212 29.8199 146.115 29.8999 145.982 29.8999H145.572C145.505 29.8999 145.448 29.8766 145.402 29.8299C145.355 29.7832 145.332 29.7266 145.332 29.6599C145.332 29.6332 145.335 29.6099 145.342 29.5899L146.302 27.4999L144.322 23.1099C144.315 23.0899 144.312 23.0666 144.312 23.0399C144.312 22.9732 144.335 22.9166 144.382 22.8699C144.428 22.8232 144.485 22.7999 144.552 22.7999H144.962C145.095 22.7999 145.192 22.8799 145.252 23.0399L146.792 26.4399L148.352 23.0399C148.412 22.8799 148.508 22.7999 148.642 22.7999H149.052C149.118 22.7999 149.175 22.8232 149.222 22.8699C149.268 22.9166 149.292 22.9732 149.292 23.0399C149.292 23.0666 149.288 23.0899 149.282 23.1099L146.272 29.6599Z" fill="#455575"/>
<path d="M190.669 20.9999C191.362 20.9999 191.936 21.1799 192.389 21.5399C192.849 21.8999 193.079 22.4266 193.079 23.1199C193.079 23.5866 192.969 23.9832 192.749 24.3099C192.536 24.6366 192.246 24.8799 191.879 25.0399C191.519 25.1999 191.116 25.2799 190.669 25.2799H188.829V27.7299C188.829 27.8032 188.802 27.8666 188.749 27.9199C188.696 27.9732 188.632 27.9999 188.559 27.9999H188.149C188.076 27.9999 188.012 27.9732 187.959 27.9199C187.906 27.8666 187.879 27.8032 187.879 27.7299V21.2699C187.879 21.1966 187.906 21.1332 187.959 21.0799C188.012 21.0266 188.076 20.9999 188.149 20.9999H190.669ZM190.619 24.3799C191.106 24.3799 191.479 24.2766 191.739 24.0699C191.999 23.8566 192.129 23.5399 192.129 23.1199C192.129 22.3066 191.626 21.8999 190.619 21.8999H188.829V24.3799H190.619Z" fill="#455575"/>
<path d="M197.255 24.7099V24.5799C197.255 24.2532 197.145 24.0032 196.925 23.8299C196.712 23.6499 196.432 23.5599 196.085 23.5599C195.819 23.5599 195.609 23.6066 195.455 23.6999C195.309 23.7866 195.169 23.9199 195.035 24.0999C194.995 24.1532 194.952 24.1899 194.905 24.2099C194.859 24.2299 194.795 24.2399 194.715 24.2399H194.415C194.342 24.2399 194.275 24.2132 194.215 24.1599C194.162 24.1066 194.139 24.0432 194.145 23.9699C194.165 23.7699 194.262 23.5732 194.435 23.3799C194.615 23.1799 194.852 23.0166 195.145 22.8899C195.439 22.7632 195.752 22.6999 196.085 22.6999C196.705 22.6999 197.205 22.8732 197.585 23.2199C197.972 23.5666 198.165 24.0532 198.165 24.6799V27.7299C198.165 27.8032 198.139 27.8666 198.085 27.9199C198.032 27.9732 197.969 27.9999 197.895 27.9999H197.525C197.452 27.9999 197.389 27.9732 197.335 27.9199C197.282 27.8666 197.255 27.8032 197.255 27.7299V27.3199C197.149 27.5599 196.922 27.7499 196.575 27.8899C196.229 28.0299 195.882 28.0999 195.535 28.0999C195.195 28.0999 194.892 28.0399 194.625 27.9199C194.359 27.7932 194.152 27.6232 194.005 27.4099C193.865 27.1966 193.795 26.9566 193.795 26.6899C193.795 26.1899 193.982 25.7999 194.355 25.5199C194.729 25.2332 195.225 25.0399 195.845 24.9399L197.255 24.7099ZM197.255 25.5099L196.075 25.6999C195.642 25.7666 195.305 25.8766 195.065 26.0299C194.825 26.1766 194.705 26.3632 194.705 26.5899C194.705 26.7566 194.782 26.9066 194.935 27.0399C195.089 27.1732 195.322 27.2399 195.635 27.2399C196.115 27.2399 196.505 27.1032 196.805 26.8299C197.105 26.5566 197.255 26.1999 197.255 25.7599V25.5099Z" fill="#455575"/>
<path d="M201.154 29.6599C201.094 29.8199 200.998 29.8999 200.864 29.8999H200.454C200.388 29.8999 200.331 29.8766 200.284 29.8299C200.238 29.7832 200.214 29.7266 200.214 29.6599C200.214 29.6332 200.218 29.6099 200.224 29.5899L201.184 27.4999L199.204 23.1099C199.198 23.0899 199.194 23.0666 199.194 23.0399C199.194 22.9732 199.218 22.9166 199.264 22.8699C199.311 22.8232 199.368 22.7999 199.434 22.7999H199.844C199.978 22.7999 200.074 22.8799 200.134 23.0399L201.674 26.4399L203.234 23.0399C203.294 22.8799 203.391 22.7999 203.524 22.7999H203.934C204.001 22.7999 204.058 22.8232 204.104 22.8699C204.151 22.9166 204.174 22.9732 204.174 23.0399C204.174 23.0666 204.171 23.0899 204.164 23.1099L201.154 29.6599Z" fill="#455575"/>
<path d="M206.101 23.3799C206.261 23.1732 206.441 23.0099 206.641 22.8899C206.841 22.7632 207.107 22.6999 207.441 22.6999C208.221 22.6999 208.767 22.9899 209.081 23.5699C209.274 23.2899 209.494 23.0766 209.741 22.9299C209.987 22.7766 210.311 22.6999 210.711 22.6999C211.364 22.6999 211.847 22.8966 212.161 23.2899C212.481 23.6832 212.641 24.2399 212.641 24.9599V27.7299C212.641 27.8032 212.614 27.8666 212.561 27.9199C212.507 27.9732 212.444 27.9999 212.371 27.9999H212.001C211.927 27.9999 211.864 27.9732 211.811 27.9199C211.757 27.8666 211.731 27.8032 211.731 27.7299V25.0599C211.731 24.0599 211.337 23.5599 210.551 23.5599C210.191 23.5599 209.904 23.6799 209.691 23.9199C209.477 24.1599 209.371 24.5166 209.371 24.9899V27.7299C209.371 27.8032 209.344 27.8666 209.291 27.9199C209.237 27.9732 209.174 27.9999 209.101 27.9999H208.731C208.657 27.9999 208.594 27.9732 208.541 27.9199C208.487 27.8666 208.461 27.8032 208.461 27.7299V25.0599C208.461 24.0599 208.067 23.5599 207.281 23.5599C206.921 23.5599 206.634 23.6799 206.421 23.9199C206.207 24.1599 206.101 24.5166 206.101 24.9899V27.7299C206.101 27.8032 206.074 27.8666 206.021 27.9199C205.967 27.9732 205.904 27.9999 205.831 27.9999H205.461C205.387 27.9999 205.324 27.9732 205.271 27.9199C205.217 27.8666 205.191 27.8032 205.191 27.7299V23.0699C205.191 22.9966 205.217 22.9332 205.271 22.8799C205.324 22.8266 205.387 22.7999 205.461 22.7999H205.831C205.904 22.7999 205.967 22.8266 206.021 22.8799C206.074 22.9332 206.101 22.9966 206.101 23.0699V23.3799Z" fill="#455575"/>
<path d="M216.137 22.6999C216.851 22.6999 217.414 22.9266 217.827 23.3799C218.241 23.8332 218.447 24.4499 218.447 25.2299V25.4999C218.447 25.5732 218.421 25.6366 218.367 25.6899C218.314 25.7432 218.251 25.7699 218.177 25.7699H214.737V25.8299C214.751 26.2699 214.884 26.6166 215.137 26.8699C215.397 27.1166 215.731 27.2399 216.137 27.2399C216.471 27.2399 216.727 27.1966 216.907 27.1099C217.094 27.0232 217.261 26.8999 217.407 26.7399C217.461 26.6866 217.507 26.6499 217.547 26.6299C217.594 26.6099 217.654 26.5999 217.727 26.5999H218.027C218.107 26.5999 218.174 26.6266 218.227 26.6799C218.281 26.7332 218.304 26.7966 218.297 26.8699C218.271 27.0499 218.171 27.2366 217.997 27.4299C217.831 27.6166 217.587 27.7766 217.267 27.9099C216.954 28.0366 216.577 28.0999 216.137 28.0999C215.711 28.0999 215.331 28.0032 214.997 27.8099C214.664 27.6099 214.397 27.3366 214.197 26.9899C214.004 26.6432 213.887 26.2532 213.847 25.8199C213.834 25.6199 213.827 25.4666 213.827 25.3599C213.827 25.2532 213.834 25.0999 213.847 24.8999C213.887 24.4866 214.004 24.1132 214.197 23.7799C214.397 23.4466 214.661 23.1832 214.987 22.9899C215.321 22.7966 215.704 22.6999 216.137 22.6999ZM217.547 24.9299V24.8999C217.547 24.4932 217.417 24.1699 217.157 23.9299C216.904 23.6832 216.564 23.5599 216.137 23.5599C215.751 23.5599 215.421 23.6832 215.147 23.9299C214.881 24.1766 214.744 24.4999 214.737 24.8999V24.9299H217.547Z" fill="#455575"/>
<path d="M224.274 27.7299C224.274 27.8032 224.247 27.8666 224.194 27.9199C224.14 27.9732 224.077 27.9999 224.004 27.9999H223.634C223.56 27.9999 223.497 27.9732 223.444 27.9199C223.39 27.8666 223.364 27.8032 223.364 27.7299V25.0899C223.364 24.5899 223.24 24.2099 222.994 23.9499C222.747 23.6899 222.404 23.5599 221.964 23.5599C221.53 23.5599 221.187 23.6899 220.934 23.9499C220.687 24.2099 220.564 24.5899 220.564 25.0899V27.7299C220.564 27.8032 220.537 27.8666 220.484 27.9199C220.43 27.9732 220.367 27.9999 220.294 27.9999H219.924C219.85 27.9999 219.787 27.9732 219.734 27.9199C219.68 27.8666 219.654 27.8032 219.654 27.7299V23.0699C219.654 22.9966 219.68 22.9332 219.734 22.8799C219.787 22.8266 219.85 22.7999 219.924 22.7999H220.294C220.367 22.7999 220.43 22.8266 220.484 22.8799C220.537 22.9332 220.564 22.9966 220.564 23.0699V23.3799C220.71 23.1866 220.91 23.0266 221.164 22.8999C221.424 22.7666 221.74 22.6999 222.114 22.6999C222.534 22.6999 222.907 22.7899 223.234 22.9699C223.56 23.1499 223.814 23.4099 223.994 23.7499C224.18 24.0832 224.274 24.4799 224.274 24.9399V27.7299Z" fill="#455575"/>
<path d="M227.088 26.2499C227.088 26.5366 227.145 26.7566 227.258 26.9099C227.378 27.0632 227.601 27.1399 227.928 27.1399H228.458C228.531 27.1399 228.595 27.1666 228.648 27.2199C228.701 27.2732 228.728 27.3366 228.728 27.4099V27.7299C228.728 27.8032 228.701 27.8666 228.648 27.9199C228.595 27.9732 228.531 27.9999 228.458 27.9999H227.828C227.261 27.9999 226.845 27.8532 226.578 27.5599C226.311 27.2599 226.178 26.8232 226.178 26.2499V23.6599H225.438C225.365 23.6599 225.301 23.6332 225.248 23.5799C225.195 23.5266 225.168 23.4632 225.168 23.3899V23.0699C225.168 22.9966 225.195 22.9332 225.248 22.8799C225.301 22.8266 225.365 22.7999 225.438 22.7999H226.178V21.1699C226.178 21.0966 226.205 21.0332 226.258 20.9799C226.311 20.9266 226.375 20.8999 226.448 20.8999H226.818C226.891 20.8999 226.955 20.9266 227.008 20.9799C227.061 21.0332 227.088 21.0966 227.088 21.1699V22.7999H228.358C228.431 22.7999 228.495 22.8266 228.548 22.8799C228.601 22.9332 228.628 22.9966 228.628 23.0699V23.3899C228.628 23.4632 228.601 23.5266 228.548 23.5799C228.495 23.6332 228.431 23.6599 228.358 23.6599H227.088V26.2499Z" fill="#455575"/>
<path d="M27 7.5C27 11.6421 23.6421 15 19.5 15C15.3579 15 12 11.6421 12 7.5C12 3.35786 15.3579 0 19.5 0C23.6421 0 27 3.35786 27 7.5Z" fill="white"/>
<path fill-rule="evenodd" clip-rule="evenodd" d="M19.5 13C22.5376 13 25 10.5376 25 7.5C25 4.46243 22.5376 2 19.5 2C16.4624 2 14 4.46243 14 7.5C14 10.5376 16.4624 13 19.5 13ZM19.5 15C23.6421 15 27 11.6421 27 7.5C27 3.35786 23.6421 0 19.5 0C15.3579 0 12 3.35786 12 7.5C12 11.6421 15.3579 15 19.5 15Z" fill="#DCDCDC"/>
<path d="M121 7.5C121 11.6421 117.642 15 113.5 15C109.358 15 106 11.6421 106 7.5C106 3.35786 109.358 0 113.5 0C117.642 0 121 3.35786 121 7.5Z" fill="white"/>
<path fill-rule="evenodd" clip-rule="evenodd" d="M113.5 13C116.538 13 119 10.5376 119 7.5C119 4.46243 116.538 2 113.5 2C110.462 2 108 4.46243 108 7.5C108 10.5376 110.462 13 113.5 13ZM113.5 15C117.642 15 121 11.6421 121 7.5C121 3.35786 117.642 0 113.5 0C109.358 0 106 3.35786 106 7.5C106 11.6421 109.358 15 113.5 15Z" fill="#DCDCDC"/>
<path d="M215 7.5C215 11.6421 211.642 15 207.5 15C203.358 15 200 11.6421 200 7.5C200 3.35786 203.358 0 207.5 0C211.642 0 215 3.35786 215 7.5Z" fill="#FF370E"/>
<path fill-rule="evenodd" clip-rule="evenodd" d="M207.5 13C210.538 13 213 10.5376 213 7.5C213 4.46243 210.538 2 207.5 2C204.462 2 202 4.46243 202 7.5C202 10.5376 204.462 13 207.5 13ZM207.5 15C211.642 15 215 11.6421 215 7.5C215 3.35786 211.642 0 207.5 0C203.358 0 200 3.35786 200 7.5C200 11.6421 203.358 15 207.5 15Z" fill="#FF370E"/>
</svg>
