<svg width="16" height="10" viewBox="0 0 16 10" fill="none" xmlns="http://www.w3.org/2000/svg">
<path fill-rule="evenodd" clip-rule="evenodd" d="M15.7071 0.292893C16.0976 0.683417 16.0976 1.31658 15.7071 1.70711L9.66165 7.75256C9.27113 8.14309 8.63796 8.14309 8.24744 7.75256L5.77273 5.27785L1.70711 9.34347C1.31658 9.73399 0.683417 9.73399 0.292893 9.34347C-0.0976311 8.95295 -0.0976311 8.31978 0.292893 7.92926L5.06562 3.15653C5.45614 2.76601 6.08931 2.76601 6.47983 3.15653L8.95455 5.63124L14.2929 0.292893C14.6834 -0.0976311 15.3166 -0.0976311 15.7071 0.292893Z" fill="#005EFF"/>
<path fill-rule="evenodd" clip-rule="evenodd" d="M10.1816 1C10.1816 0.447715 10.6294 0 11.1816 0H14.9998C15.5521 0 15.9998 0.447715 15.9998 1V4.81818C15.9998 5.37047 15.5521 5.81818 14.9998 5.81818C14.4475 5.81818 13.9998 5.37047 13.9998 4.81818V2H11.1816C10.6294 2 10.1816 1.55228 10.1816 1Z" fill="#005EFF"/>
</svg>
